<?xml version="1.0" encoding="UTF-8"?><svg id="Layer_2" xmlns="http://www.w3.org/2000/svg" viewBox="0 0 725.08 527.85"><defs><style>.cls-1{fill:#fff;}.cls-2{fill:none;}.cls-3{fill:#1869f6;}.cls-4{fill:#f2ff77;}</style></defs><g id="Layer_2-2"><g><g><path class="cls-1" d="m210.64,90.46c5.76-5.7,12.89-6.17,18.37-.63,5.57,5.63,5.4,13.65-.82,19.81-5.76,5.7-13.91,6.84-20.2.49l3.59-5.24c4.35,4.39,9.14,3.95,12.64.49,3.45-3.42,3.69-7.87.48-11.11-3.04-3.07-7.03-2.67-10.35.63l-9.25,9.16-14.09-15.34,17.4-17.22,4.09,4.14-13.18,13.04,6.2,6.86,5.12-5.06Z"/><path class="cls-1" d="m254.78,62.31c7.12,10.25,6.32,21.1-2.01,26.88-8.33,5.78-18.77,2.73-25.89-7.52-7.12-10.25-6.32-21.1,2.01-26.88,8.33-5.78,18.77-2.73,25.89,7.52Zm-5.37,3.73c-5.06-7.29-11.9-9.99-17.13-6.37-5.22,3.63-5.09,10.98-.02,18.27,5.06,7.29,11.91,9.99,17.13,6.37,5.22-3.63,5.09-10.98.02-18.27Z"/><path class="cls-1" d="m292.88,78.2l-6.49,2.52.57-11.94-22.51-22.47,6.49-2.52,16.45,16.65,1.11-23.48,6.49-2.52-2.11,43.75Z"/><path class="cls-1" d="m330.11,43.58l-23.57,5.11c1.76,5.27,6.38,7.64,10.66,6.71,3.22-.7,6.3-2.35,7.47-6.9h5.71c-1.08,6.61-5.58,10.78-12.03,12.18-7.92,1.72-16.16-2.88-18.15-12.08-2.01-9.26,3.51-16.91,11.72-18.69,7.8-1.69,15.55,2.89,17.73,11.56l.46,2.11Zm-24.34.74l17.12-3.71c-1.97-4.55-5.82-6.17-9.81-5.3-3.81.83-7.39,4.12-7.31,9.02Z"/><path class="cls-1" d="m364.16,55.16l-6.23.27-.15-3.42c-2.46,2.81-6.11,4.53-10.6,4.73-7.79.34-15.02-5.65-15.43-15.06-.41-9.35,6.26-16.01,14.06-16.35,4.5-.2,8.28,1.2,10.98,3.78l-.15-3.42,6.23-.27,1.3,29.73Zm-6.89-14.59c-.27-6.23-5.3-9.98-10.22-9.76-5.45.24-9.54,4.38-9.26,10.62.28,6.29,4.7,10,10.16,9.76,4.91-.22,9.6-4.32,9.32-10.62Z"/><path class="cls-1" d="m391.72,28.11l-1.04,5.92c-.47-.11-1.19-.18-1.72-.24-7.52-.78-11.76,4.09-12.61,12.2l-1.08,10.44-6.21-.64,3.07-29.6,6.21.64-.66,6.33c2.8-3.69,6.84-6.05,11.97-5.51.72.07,1.31.14,2.06.46Z"/><path class="cls-1" d="m395.08,49.83c-.39,3.54,2.31,5.71,6.1,6.59,3.51.81,6.09-.25,6.62-2.53.41-1.75-.56-3.15-3.11-4.36l-6.01-2.75c-4.77-2.28-7.01-5.63-6.05-9.72,1.25-5.38,6.63-8.13,13.59-6.51,6.66,1.55,10.35,6.1,10.27,11.19l-6.07-.12c.18-2.91-1.76-5.4-5.5-6.27-3.56-.83-5.55.56-6.03,2.6-.38,1.64.31,2.91,2.75,4.09l6.54,3.12c4.44,2.08,6.67,5.49,5.72,9.58-1.41,6.08-7.14,8.19-14.39,6.51-6.49-1.51-11.4-5.54-10.8-11.56l6.38.13Z"/><path class="cls-1" d="m457.63,66.88c-3.97,8.34-13.15,11.02-21.06,7.25-7.96-3.79-11.73-12.63-7.76-20.97s13.18-10.94,21.14-7.15c7.91,3.76,11.65,12.52,7.68,20.86Zm-5.47-2.6c2.66-5.58.1-11.25-4.5-13.44-4.71-2.24-10.67-.62-13.32,4.96-2.66,5.58-.16,11.22,4.56,13.46,4.6,2.19,10.61.6,13.27-4.98Z"/><path class="cls-1" d="m472.45,65.34l-13.37,20.65-5.24-3.39,13.37-20.65-4.08-2.64,2.8-4.33,4.08,2.64,1.92-2.97c3.62-5.59,9.54-6.69,15.08-3.1,1.56,1.01,2.73,2.19,3.69,3.68l-4.03,3.47c-.68-.94-1.54-1.71-2.34-2.23-2.62-1.7-5.37-1.19-7.17,1.58l-1.92,2.97,8.31,5.38-2.8,4.33-8.31-5.38Z"/><path class="cls-1" d="m499.7,105.18l3.13,5.06c-5.6,3.53-12.76,2.33-17.75-2.43-6.16-5.88-7.02-15.41-.52-22.22,6.42-6.73,16.06-6.4,22.22-.52,4.86,4.64,6.34,11.69,3.3,17.58l-5.54-2.88c2.2-3.96,1.13-7.79-1.73-10.53-3.99-3.81-9.76-3.68-13.82.58-4.18,4.38-3.92,10.02.07,13.83,2.86,2.73,6.62,3.66,10.64,1.53Z"/><path class="cls-1" d="m527.05,133.54c-7.39,5.54-16.76,3.64-22.02-3.36-5.29-7.06-4.52-16.63,2.87-22.17,7.39-5.54,16.75-3.56,22.04,3.5,5.25,7.01,4.5,16.5-2.9,22.04Zm-3.63-4.85c4.94-3.71,5.32-9.91,2.26-13.99-3.13-4.18-9.15-5.51-14.1-1.8-4.94,3.71-5.35,9.86-2.22,14.04,3.06,4.08,9.12,5.46,14.06,1.75Z"/><path class="cls-1" d="m516,145.12l37.37-21.67,3.13,5.4-37.37,21.67-3.13-5.4Z"/><path class="cls-1" d="m521.83,155.54l38.69-19.2,2.77,5.59-38.69,19.2-2.77-5.59Z"/><path class="cls-1" d="m549.15,187.26l-8.19-22.68c-4.99,2.44-6.73,7.34-5.24,11.46,1.12,3.1,3.16,5.94,7.83,6.49l.77,5.66c-6.7-.19-11.43-4.1-13.67-10.31-2.75-7.62.71-16.4,9.57-19.6,8.92-3.22,17.23,1.24,20.08,9.14,2.71,7.51-.8,15.79-9.11,19.11l-2.03.73Zm-3.95-24.02l5.95,16.48c4.24-2.55,5.34-6.58,3.95-10.42-1.32-3.67-5.06-6.78-9.91-6.06Z"/><path class="cls-1" d="m551.93,213.47l-.42,5.94c-6.61-.41-11.72-5.56-12.98-12.35-1.56-8.37,3.31-16.61,12.57-18.34,9.14-1.71,16.77,4.19,18.34,12.57,1.23,6.61-1.69,13.19-7.6,16.19l-2.81-5.58c4.1-1.92,5.47-5.66,4.75-9.55-1.01-5.43-5.77-8.69-11.55-7.61-5.96,1.11-9.04,5.84-8.03,11.26.73,3.89,3.23,6.84,7.74,7.47Z"/><path class="cls-1" d="m544.23,243.44c-1.82-2.73-2.52-4.74-2.64-7.26-.32-6.41,3.06-10.91,10.43-11.27l14.44-.72-.32-6.41,5.15-.26.32,6.41,9.23-.46.31,6.23-9.23.46.51,10.19-5.15.26-.51-10.19-14.02.7c-3.72.19-5.41,2.25-5.27,5.19.08,1.56.77,3.45,1.87,4.95l-5.12,2.18Z"/><path class="cls-1" d="m542.4,245.02l29.73,1.19-.25,6.23-29.73-1.19.25-6.23Zm38.38,8.62c-2.22-.09-3.77-1.83-3.68-4.11.09-2.34,1.78-3.95,4-3.86,2.1.08,3.83,1.83,3.74,4.17-.09,2.28-1.96,3.88-4.06,3.8Z"/><path class="cls-1" d="m539.73,272.28l1.02-6.58,31.43-8.05-1.04,6.7-23.55,5.81,20.68,12.68-1.04,6.7-27.49-17.26Z"/><path class="cls-1" d="m541.76,315.37l7.37-22.97c-5.44-1.11-9.81,1.71-11.15,5.88-1.01,3.14-1.12,6.63,2.24,9.92l-2.85,4.95c-5.19-4.25-6.55-10.23-4.53-16.51,2.47-7.71,10.58-12.55,19.55-9.67,9.03,2.9,12.88,11.5,10.32,19.5-2.44,7.6-10.28,12.01-18.88,9.57l-2.06-.66Zm11.54-21.44l-5.35,16.68c4.92.57,8.25-1.95,9.5-5.84,1.19-3.71.13-8.46-4.15-10.84Z"/><path class="cls-1" d="m522.53,323.98l26.31,13.91-2.92,5.52-26.31-13.91,2.92-5.52Zm30.9,24.34c-1.96-1.04-2.61-3.28-1.54-5.3,1.09-2.07,3.31-2.8,5.27-1.76,1.86.98,2.66,3.31,1.57,5.38-1.07,2.02-3.44,2.66-5.3,1.68Z"/><path class="cls-1" d="m515.76,368.27l-14.77-10.28,3.6-5.17,13.74,9.56c3.99,2.78,8.26,2.31,10.69-1.18,3.05-4.38,2.12-9.34-4.04-13.63l-11.28-7.85,3.56-5.12,24.42,17-3.56,5.12-3-2.09c.99,3.61.34,7.4-2.2,11.04-4.08,5.86-11.05,6.85-17.16,2.6Z"/><path class="cls-1" d="m502.3,370.04c-2.85-2.15-6.09-.93-8.79,1.88-2.49,2.6-2.9,5.37-1.21,6.98,1.3,1.25,2.99,1.12,5.34-.45l5.44-3.76c4.39-2.94,8.42-3.15,11.45-.24,3.99,3.82,3.6,9.85-1.34,15.01-4.73,4.94-10.53,5.78-14.87,3.12l3.2-5.16c2.41,1.65,5.54,1.24,8.2-1.53,2.53-2.64,2.35-5.06.84-6.51-1.21-1.16-2.66-1.22-4.92.27l-6.02,4.03c-4.06,2.76-8.13,2.93-11.16.03-4.5-4.32-3.4-10.32,1.75-15.69,4.61-4.81,10.59-6.97,15.46-3.38l-3.36,5.42Z"/><path class="cls-1" d="m458.46,396.02l4.96-3.78,2.22,2.91c.16-3.75,1.95-7.14,5.43-9.8,5.73-4.36,12.62-3.13,17.17,2.83l10.87,14.27-4.96,3.78-10.11-13.27c-2.95-3.87-7.19-4.78-10.62-2.16-4.25,3.24-4.83,8.21-.29,14.17l8.33,10.93-4.96,3.78-18.04-23.67Z"/><path class="cls-1" d="m451.39,434.03l-2.54-5.45c.45-.18,1.08-.53,1.55-.79,6.61-3.67,7.3-10.09,3.34-17.22l-5.1-9.18,5.46-3.03,14.44,26.02-5.46,3.03-3.09-5.56c-.18,4.63-2.14,8.87-6.65,11.38-.63.35-1.15.64-1.95.81Z"/><path class="cls-1" d="m409.34,418.55l5.84-2.2,1.21,3.2c1.46-3.44,4.39-6.21,8.6-7.8,7.3-2.75,16.03.68,19.36,9.5,3.3,8.76-.96,17.16-8.26,19.92-4.21,1.59-8.24,1.44-11.61-.17l1.21,3.2-5.84,2.2-10.51-27.84Zm11.09,11.72c2.2,5.84,8.15,7.83,12.75,6.09,5.11-1.93,7.7-7.14,5.49-12.97-2.22-5.89-7.59-8.04-12.69-6.11-4.6,1.74-7.77,7.1-5.55,13Z"/><path class="cls-1" d="m380.09,442.58l-3.26-17.7,6.2-1.14,3.03,16.46c.88,4.78,4.24,7.46,8.43,6.68,5.25-.97,8.08-5.15,6.72-12.52l-2.49-13.51,6.14-1.13,5.39,29.27-6.14,1.13-.66-3.6c-1.84,3.27-4.97,5.49-9.33,6.29-7.02,1.29-12.68-2.91-14.02-10.23Z"/><path class="cls-1" d="m351.14,436.6l-5.78-1.41c1.52-6.44,7.45-10.62,14.35-10.73,8.52-.13,15.82,6.05,15.97,15.47.15,9.3-6.95,15.83-15.47,15.97-6.72.11-12.72-3.88-14.68-10.21l5.97-1.83c1.21,4.36,4.66,6.35,8.62,6.28,5.52-.09,9.53-4.23,9.44-10.11-.1-6.06-4.24-9.89-9.76-9.81-3.96.06-7.29,2.03-8.66,6.38Z"/><path class="cls-1" d="m313.58,434.39l23.86,3.51c.21-5.55-3.29-9.4-7.62-10.04-3.26-.48-6.73-.02-9.42,3.83l-5.35-2c3.34-5.81,9.02-8.13,15.55-7.17,8.01,1.18,14.11,8.38,12.74,17.7-1.38,9.38-9.24,14.59-17.55,13.37-7.89-1.16-13.53-8.18-12.53-17.06l.31-2.14Zm23.04,7.88l-17.33-2.55c.24,4.95,3.28,7.82,7.31,8.41,3.86.57,8.37-1.25,10.02-5.86Z"/><path class="cls-1" d="m272.04,419.96l22.49,8.7c1.43-5.36-1.13-9.89-5.21-11.47-3.08-1.19-6.56-1.51-10.03,1.65l-4.77-3.13c4.55-4.93,10.6-5.94,16.75-3.55,7.55,2.92,11.9,11.3,8.51,20.08-3.42,8.84-12.24,12.18-20.07,9.15-7.44-2.88-11.39-10.97-8.44-19.41l.78-2.01Zm20.72,12.78l-16.34-6.32c-.86,4.88,1.47,8.35,5.27,9.82,3.64,1.41,8.44.63,11.07-3.5Z"/><path class="cls-1" d="m251.71,392.76l6.49,3.76,1.36,13.2,12.14-5.37,6.43,3.73-16.55,7.25,1.59,18.54-6.43-3.73-1.09-13.67-12.41,5.84-6.49-3.76,16.88-7.82-1.92-17.97Z"/><path class="cls-1" d="m216.03,382.41c6.05-7.22,15.43-7.57,21.41-2.55,3.45,2.89,5.29,6.48,5.53,10.2l8.75-10.43,4.78,4.01-25.68,30.61-4.78-4.01,2.2-2.62c-3.71.41-7.56-.79-11.01-3.68-5.97-5.01-7.22-14.36-1.2-21.53Zm4.64,3.89c-4.01,4.78-3.29,10.55.89,14.06,3.77,3.16,10.04,3.25,14.05-1.53,4.05-4.83,2.83-10.94-.94-14.1-4.18-3.51-9.95-3.26-14,1.57Z"/><path class="cls-1" d="m196.25,356.69l15.56,18.43c3.83-4.02,3.76-9.22.93-12.57-2.13-2.52-5.03-4.47-9.59-3.36l-2.68-5.04c6.35-2.15,12.14-.13,16.4,4.92,5.23,6.19,5.03,15.62-2.17,21.7-7.24,6.12-16.58,4.82-22-1.6-5.15-6.1-4.73-15.09,1.9-21.08l1.65-1.39Zm12.06,21.15l-11.3-13.38c-3.09,3.87-2.72,8.03-.09,11.15,2.52,2.98,7.11,4.6,11.39,2.24Z"/><path class="cls-1" d="m169.67,345.14l5.3-2.85c.21.44.59,1.05.88,1.5,4.04,6.39,10.49,6.71,17.39,2.35l8.87-5.61,3.33,5.27-25.15,15.9-3.33-5.27,5.37-3.4c-4.63.09-8.98-1.63-11.74-5.99-.38-.61-.71-1.12-.92-1.9Z"/><path class="cls-1" d="m156.61,338.56c1.98-1.01,4.18-.25,5.22,1.78,1.06,2.08.39,4.32-1.59,5.33-1.87.96-4.24.28-5.3-1.81-1.04-2.03-.2-4.35,1.67-5.3Zm37.68-11.3l-26.5,13.53-2.84-5.56,26.5-13.53,2.84,5.56Z"/><path class="cls-1" d="m166.5,295.46l8.4,22.61c4.96-2.49,6.66-7.4,5.13-11.51-1.15-3.09-3.22-5.91-7.89-6.41l-.82-5.65c6.71.13,11.47,3.99,13.77,10.18,2.82,7.59-.56,16.4-9.39,19.68-8.89,3.3-17.24-1.08-20.16-8.95-2.78-7.48.66-15.8,8.93-19.19l2.02-.75Zm4.18,23.98l-6.1-16.42c-4.22,2.59-5.28,6.63-3.86,10.46,1.36,3.66,5.13,6.73,9.96,5.96Z"/><path class="cls-1" d="m155.58,264.04l17.68-3.35,1.17,6.19-16.45,3.11c-4.77.9-7.43,4.28-6.64,8.46.99,5.25,5.19,8.05,12.56,6.66l13.5-2.56,1.16,6.13-29.24,5.53-1.16-6.13,3.6-.68c-3.28-1.82-5.51-4.94-6.34-9.3-1.33-7.02,2.85-12.69,10.16-14.07Z"/><path class="cls-1" d="m161.41,235.06l1.38-5.79c6.45,1.49,10.66,7.4,10.8,14.3.18,8.52-5.97,15.85-15.39,16.04-9.3.2-15.87-6.87-16.04-15.39-.14-6.72,3.81-12.74,10.13-14.73l1.87,5.96c-4.35,1.23-6.32,4.69-6.24,8.65.12,5.52,4.28,9.51,10.16,9.39,6.06-.13,9.87-4.29,9.76-9.81-.08-3.96-2.07-7.28-6.42-8.63Z"/><path class="cls-1" d="m163.43,197.49l-3.38,23.88c5.55.18,9.38-3.34,10-7.67.46-3.27-.02-6.73-3.88-9.4l1.97-5.36c5.83,3.31,8.18,8.98,7.25,15.51-1.14,8.02-8.31,14.15-17.63,12.83-9.39-1.33-14.64-9.16-13.46-17.48,1.12-7.9,8.1-13.58,17-12.62l2.14.3Zm-7.76,23.08l2.46-17.35c-4.95.27-7.8,3.32-8.37,7.36-.55,3.86,1.3,8.36,5.92,9.99Z"/></g><g><path class="cls-4" d="m308.3,172.91c.53-.38,1.07-.76,1.6-1.14.21-.04.43-.05.64-.12,21.22-7.19,42.43-14.39,63.64-21.58,3.44-1.17,5.25-.6,7.32,2.31,13.61,19.13,27.23,38.25,40.83,57.39,3.26,4.58,5.42,9.65,6.59,15.16,2.18,10.29,1.22,20.51-.99,30.62-3.92,17.96-11.09,34.69-19.9,50.75-1.09,1.98-2.58,3.04-4.81,3.43-12.42,2.14-24.92,3.34-37.52,3.23-12.08-.1-24.05-1.24-35.57-5.22-9.09-3.15-17.01-8.03-22.7-16.01-13.69-19.21-27.36-38.43-41.03-57.66-1.95-2.74-1.88-4.74.21-7.42,8.38-10.78,16.76-21.54,25.13-32.32,5.53-7.13,11.04-14.27,16.56-21.41Z"/><path class="cls-3" d="m318.3,186.62c.42-.3.85-.6,1.27-.91.17-.03.35-.04.51-.1,16.91-5.73,33.82-11.47,50.73-17.2,2.74-.93,4.19-.48,5.84,1.84,10.85,15.25,21.7,30.49,32.54,45.74,2.6,3.65,4.32,7.69,5.25,12.08,1.74,8.2.97,16.34-.79,24.41-3.13,14.32-8.84,27.65-15.86,40.45-.87,1.58-2.06,2.42-3.84,2.73-9.9,1.7-19.86,2.66-29.91,2.58-9.63-.08-19.17-.99-28.35-4.16-7.25-2.51-13.56-6.4-18.09-12.76-10.91-15.31-21.8-30.63-32.7-45.95-1.55-2.18-1.5-3.77.16-5.91,6.68-8.59,13.36-17.17,20.03-25.76,4.41-5.68,8.8-11.38,13.2-17.06Z"/><path class="cls-1" d="m355.86,254.22l-18.23-3.07c-.64-.11-1.08-.72-.97-1.36l.97-5.76c.11-.64.72-1.08,1.36-.97l10.14,1.71c.64.11,1.25-.33,1.36-.97l6.14-36.44c.11-.64.72-1.08,1.36-.97l5.76.97c.64.11,1.08.72.97,1.36l-7.51,44.53c-.11.64-.72,1.08-1.36.97Z"/></g><polygon class="cls-4" points="183.48 146.23 196.65 147.36 196.65 143.36 183.48 144.49 172.61 144.49 180.3 136.8 190.41 128.29 187.58 125.46 179.07 135.57 171.38 143.26 171.38 132.39 172.51 119.22 168.51 119.22 169.64 132.39 169.64 143.26 161.95 135.57 153.44 125.46 150.61 128.29 160.72 136.8 168.41 144.49 157.53 144.49 144.37 143.36 144.37 147.36 157.53 146.23 168.41 146.23 160.72 153.92 150.61 162.43 153.44 165.26 161.95 155.15 169.64 147.46 169.64 158.34 168.51 171.5 172.51 171.5 171.38 158.34 171.38 147.46 179.07 155.15 187.58 165.26 190.41 162.43 180.3 153.92 172.61 146.23 183.48 146.23"/></g><rect class="cls-2" width="725.08" height="527.85"/></g></svg>