<svg width="15" height="15" viewBox="0 0 15 15" fill="none" xmlns="http://www.w3.org/2000/svg">
<path d="M14.4419 7.94188C14.686 7.6978 14.686 7.30208 14.4419 7.058L10.4645 3.08052C10.2204 2.83644 9.8247 2.83644 9.5806 3.08052C9.3365 3.3246 9.3365 3.72033 9.5806 3.96441L13.1161 7.49994L9.5806 11.0355C9.3365 11.2795 9.3365 11.6753 9.5806 11.9194C9.8247 12.1634 10.2204 12.1634 10.4645 11.9194L14.4419 7.94188ZM0 7.49994C0 7.84512 0.279822 8.12494 0.625 8.12494H14V6.87494H0.625C0.279822 6.87494 0 7.15476 0 7.49994V7.49994Z" fill="white"/>
</svg>
