<svg width="60" height="40" viewBox="0 0 60 40" fill="none" xmlns="http://www.w3.org/2000/svg">
<g clip-path="url(#clip0_25_1096)">
<path d="M40 -1.74846e-06C40 2.62644 40.5173 5.22716 41.5224 7.65367C42.5275 10.0802 44.0007 12.285 45.8579 14.1421C47.715 15.9993 49.9198 17.4725 52.3463 18.4776C54.7728 19.4827 57.3736 20 60 20" stroke="white" stroke-width="4"/>
<path d="M60 20C57.3736 20 54.7728 20.5173 52.3463 21.5224C49.9198 22.5275 47.715 24.0007 45.8579 25.8579C44.0007 27.715 42.5275 29.9198 41.5224 32.3463C40.5173 34.7728 40 37.3736 40 40" stroke="white" stroke-width="4"/>
<rect y="19" width="60" height="2" fill="white"/>
</g>
<defs>
<clipPath id="clip0_25_1096">
<rect width="60" height="40" fill="white"/>
</clipPath>
</defs>
</svg>
