<?xml version="1.0" encoding="UTF-8"?><svg id="Layer_2" xmlns="http://www.w3.org/2000/svg" viewBox="0 0 1163.48 1163.48"><defs><style>.cls-1{fill:#fff;}.cls-2{fill:#1869f6;}</style></defs><g id="Layer_1-2"><rect class="cls-1" x="0" y="0" width="1163.48" height="1163.48" rx="581.74" ry="581.74"/><g><path class="cls-2" d="m321.94,839.26c46.2-260.81,295.95-473.06,556.82-473.32l3.32-18.85c2.24-12.68-7.52-24.32-20.4-24.32h-475.87c-10.05,0-18.66,7.22-20.4,17.12l-84.02,476.51c-2.24,12.68,7.52,24.31,20.4,24.31h20.18c0-.49-.12-.96-.03-1.46Z"/><path class="cls-2" d="m612.2,728.86h-24.77c-.96,0-1.78.68-1.96,1.62l-3.94,20.6c-.24,1.23.71,2.37,1.96,2.37h24.53c7.59,0,19.49-2.49,19.36-13.48-.13-7.71-8.5-11.12-15.17-11.12Z"/><path class="cls-2" d="m618.61,691.85h-24.49c-.97,0-1.8.69-1.97,1.64l-3.21,17.85c-.22,1.23.72,2.35,1.97,2.35h24.03c10.99,0,16.61-5.62,16.61-11.9s-4.45-9.94-12.95-9.94Z"/><path class="cls-2" d="m340.59,840.71h437.08c10.05,0,18.66-7.22,20.4-17.12l77.41-439c-250.5,2.03-489.55,205.67-534.89,456.11Zm295.86-117.06c7.18,4.63,10.32,12.52,8.71,20.91-3.53,18.45-21.32,23.94-39.9,23.94h-41.05c-1.24,0-2.18-1.12-1.97-2.34l15.39-87.57c.17-.95,1-1.65,1.97-1.65h41.75c17.79,0,26.69,10.33,26.95,22.1.12,7.47-3.42,16.1-11.81,21.21-1.28.78-1.3,2.59-.04,3.4Zm112.59-44.51c-12.06,11.08-24.08,22.2-36.12,33.3-.95.88-1.81,1.51-.97,3.17,8.67,17.09,17.24,34.24,25.85,51.37.21.41,1.44,1.84.57,1.85-14.45.09-7.12.04-21.57.11-1.61,0-2.22-.74-2.82-1.99-5.97-12.44-11.97-24.86-17.96-37.29v-.03c-.79-1.6-2.9-1.98-4.2-.78-4.14,3.82-8.18,7.55-12.16,11.35-.56.53-.71,1.58-.86,2.42-1.44,7.97-2.89,15.94-4.19,23.94-.42,2.58-1.19,2.55-6.02,2.55-4.45,0-14.23-.27-15.71-.38,5.36-30.24,10.69-60.33,16.04-90.53.11-.63.66-1.1,1.3-1.1h18.61c.82,0,1.44.74,1.3,1.55-1.93,11.09-3.83,22.08-5.84,33.65,1.13-1,1.79-1.55,2.41-2.13,11.07-10.49,22.16-20.96,33.18-31.5,1.33-1.27,2.66-1.76,4.47-1.75,7.95.08,15.89.04,23.84.04h2.5c.14.57-1.12,1.68-1.66,2.17Z"/></g></g></svg>