<svg width="24" height="24" viewBox="0 0 24 24" fill="none" xmlns="http://www.w3.org/2000/svg">
<path d="M7.24547 20.0579C6.75006 21.0488 5.3739 20.9387 4.87848 20.4433C4.38307 19.9479 3.9427 19.3974 5.3739 16.8653C6.80509 14.3332 5.9794 13.5625 6.30968 11.0855C6.63995 8.60841 7.02527 6.95703 11.7042 6.95703C14.1812 6.95703 15.9978 8.38822 17.3189 10.4249C18.64 12.4616 17.6491 15.269 17.5941 16.2047C17.539 17.1405 18.8601 17.8011 19.4657 19.2873C20.0712 20.7735 18.5299 21.7644 17.9244 21.2139C17.3189 20.6635 16.328 20.7735 15.9978 21.4891C15.6675 22.2047 15.062 22.4249 14.1262 22.3699C13.1904 22.3148 12.4198 21.5992 12.0895 20.4433C11.7592 19.2873 10.3831 19.1772 10.1629 20.0579C9.94272 20.9387 9.11703 22.2598 8.29134 22.0396C7.46565 21.8194 7.24547 21.4891 7.24547 20.0579ZM7.24547 20.0579V19" stroke="white" stroke-width="2"/>
<path d="M12 11.5C10.6743 11.5 10.0963 11.8072 8.5 14.9999C11.9128 14.1192 13.133 14.2779 15.5 15.3788C14.5092 11.4705 13.5 11.5 12 11.5Z" stroke="white" stroke-width="1.7" stroke-linejoin="round"/>
<path d="M13.0804 7.12214C13.3556 6.18636 12.6951 5.85609 13.0804 4.64508C13.3887 3.67627 13.9428 3.14049 14.1813 2.9937C14.1997 2.75517 14.3245 2.2671 14.6768 2.22306C15.1171 2.16802 15.5024 2.55334 15.3373 2.88361C15.1722 3.21389 14.8419 3.32399 14.5116 3.21389C14.1263 3.43686 13.1697 4.1789 13.5 5.5C13.7642 6.55688 14.1813 7.30564 14.1263 7.45243" stroke="white" stroke-width="2"/>
<path d="M9.06201 7.17705C9.1721 6.24127 9.55744 5.76441 9.28221 4.82863C9.00698 3.89285 9 3 9.2822 2.4431C9.17209 1.89264 9.50236 1.56237 9.83264 1.67246C10.1629 1.78255 10.4381 2.27797 10.0528 2.49815C9.74457 2.6743 9.59411 2.64494 9.55741 2.60825C9.46567 2.95687 9.33723 3.80825 9.55741 4.42476C9.83264 5.1954 10.218 6.24127 10.1629 7.01192" stroke="white" stroke-width="2"/>
</svg>
