<svg width="4840" height="4184" viewBox="0 0 4840 4184" fill="none" xmlns="http://www.w3.org/2000/svg">
<g clip-path="url(#clip0_189_167)">
<rect y="2" width="2" height="4840" transform="rotate(-90 0 2)" fill="#0E0D0E"/>
<rect y="84" width="2" height="4840" transform="rotate(-90 0 84)" fill="#0E0D0E"/>
<rect y="166" width="2" height="4840" transform="rotate(-90 0 166)" fill="#0E0D0E"/>
<rect y="248" width="2" height="4840" transform="rotate(-90 0 248)" fill="#0E0D0E"/>
<rect y="330" width="2" height="4840" transform="rotate(-90 0 330)" fill="#0E0D0E"/>
<rect y="412" width="2" height="4840" transform="rotate(-90 0 412)" fill="#0E0D0E"/>
<rect y="494" width="2" height="4840" transform="rotate(-90 0 494)" fill="#0E0D0E"/>
<rect y="576" width="2" height="4840" transform="rotate(-90 0 576)" fill="#0E0D0E"/>
<rect y="658" width="2" height="4840" transform="rotate(-90 0 658)" fill="#0E0D0E"/>
<rect y="740" width="2" height="4840" transform="rotate(-90 0 740)" fill="#0E0D0E"/>
<rect y="822" width="2" height="4840" transform="rotate(-90 0 822)" fill="#0E0D0E"/>
<rect y="904" width="2" height="4840" transform="rotate(-90 0 904)" fill="#0E0D0E"/>
<rect y="986" width="2" height="4840" transform="rotate(-90 0 986)" fill="#0E0D0E"/>
<rect y="1068" width="2" height="4840" transform="rotate(-90 0 1068)" fill="#0E0D0E"/>
<rect y="1150" width="2" height="4840" transform="rotate(-90 0 1150)" fill="#0E0D0E"/>
<rect y="1232" width="2" height="4840" transform="rotate(-90 0 1232)" fill="#0E0D0E"/>
<rect y="1314" width="2" height="4840" transform="rotate(-90 0 1314)" fill="#0E0D0E"/>
<rect y="1396" width="2" height="4840" transform="rotate(-90 0 1396)" fill="#0E0D0E"/>
<rect y="1478" width="2" height="4840" transform="rotate(-90 0 1478)" fill="#0E0D0E"/>
<rect y="1560" width="2" height="4840" transform="rotate(-90 0 1560)" fill="#0E0D0E"/>
<rect y="1642" width="2" height="4840" transform="rotate(-90 0 1642)" fill="#0E0D0E"/>
<rect y="1724" width="2" height="4840" transform="rotate(-90 0 1724)" fill="#0E0D0E"/>
<rect y="1806" width="2" height="4840" transform="rotate(-90 0 1806)" fill="#0E0D0E"/>
<rect y="1888" width="2" height="4840" transform="rotate(-90 0 1888)" fill="#0E0D0E"/>
<rect y="1970" width="2" height="4840" transform="rotate(-90 0 1970)" fill="#0E0D0E"/>
<rect y="2052" width="2" height="4840" transform="rotate(-90 0 2052)" fill="#0E0D0E"/>
<rect y="2134" width="2" height="4840" transform="rotate(-90 0 2134)" fill="#0E0D0E"/>
<rect y="2216" width="2" height="4840" transform="rotate(-90 0 2216)" fill="#0E0D0E"/>
<rect y="2298" width="2" height="4840" transform="rotate(-90 0 2298)" fill="#0E0D0E"/>
<rect y="2380" width="2" height="4840" transform="rotate(-90 0 2380)" fill="#0E0D0E"/>
<rect y="2462" width="2" height="4840" transform="rotate(-90 0 2462)" fill="#0E0D0E"/>
<rect y="2544" width="2" height="4840" transform="rotate(-90 0 2544)" fill="#0E0D0E"/>
<rect y="2626" width="2" height="4840" transform="rotate(-90 0 2626)" fill="#0E0D0E"/>
<rect y="2708" width="2" height="4840" transform="rotate(-90 0 2708)" fill="#0E0D0E"/>
<rect y="2790" width="2" height="4840" transform="rotate(-90 0 2790)" fill="#0E0D0E"/>
<rect y="2872" width="2" height="4840" transform="rotate(-90 0 2872)" fill="#0E0D0E"/>
<rect y="2954" width="2" height="4840" transform="rotate(-90 0 2954)" fill="#0E0D0E"/>
<rect y="3036" width="2" height="4840" transform="rotate(-90 0 3036)" fill="#0E0D0E"/>
<rect y="3118" width="2" height="4840" transform="rotate(-90 0 3118)" fill="#0E0D0E"/>
<rect y="3200" width="2" height="4840" transform="rotate(-90 0 3200)" fill="#0E0D0E"/>
<rect y="3282" width="2" height="4840" transform="rotate(-90 0 3282)" fill="#0E0D0E"/>
<rect y="3364" width="2" height="4840" transform="rotate(-90 0 3364)" fill="#0E0D0E"/>
<rect y="3446" width="2" height="4840" transform="rotate(-90 0 3446)" fill="#0E0D0E"/>
<rect y="3528" width="2" height="4840" transform="rotate(-90 0 3528)" fill="#0E0D0E"/>
<rect y="3610" width="2" height="4840" transform="rotate(-90 0 3610)" fill="#0E0D0E"/>
<rect y="3692" width="2" height="4840" transform="rotate(-90 0 3692)" fill="#0E0D0E"/>
<rect y="3774" width="2" height="4840" transform="rotate(-90 0 3774)" fill="#0E0D0E"/>
<rect y="3856" width="2" height="4840" transform="rotate(-90 0 3856)" fill="#0E0D0E"/>
<rect y="3938" width="2" height="4840" transform="rotate(-90 0 3938)" fill="#0E0D0E"/>
<rect y="4020" width="2" height="4840" transform="rotate(-90 0 4020)" fill="#0E0D0E"/>
<rect y="4102" width="2" height="4840" transform="rotate(-90 0 4102)" fill="#0E0D0E"/>
<rect y="4184" width="2" height="4840" transform="rotate(-90 0 4184)" fill="#0E0D0E"/>
<rect width="2" height="4184" fill="#0E0D0E"/>
<rect x="82" width="2" height="4184" fill="#0E0D0E"/>
<rect x="164" width="2" height="4184" fill="#0E0D0E"/>
<rect x="246" width="2" height="4184" fill="#0E0D0E"/>
<rect x="328" width="2" height="4184" fill="#0E0D0E"/>
<rect x="410" width="2" height="4184" fill="#0E0D0E"/>
<rect x="492" width="2" height="4184" fill="#0E0D0E"/>
<rect x="574" width="2" height="4184" fill="#0E0D0E"/>
<rect x="656" width="2" height="4184" fill="#0E0D0E"/>
<rect x="738" width="2" height="4184" fill="#0E0D0E"/>
<rect x="820" width="2" height="4184" fill="#0E0D0E"/>
<rect x="902" width="2" height="4184" fill="#0E0D0E"/>
<rect x="984" width="2" height="4184" fill="#0E0D0E"/>
<rect x="1066" width="2" height="4184" fill="#0E0D0E"/>
<rect x="1148" width="2" height="4184" fill="#0E0D0E"/>
<rect x="1230" width="2" height="4184" fill="#0E0D0E"/>
<rect x="1312" width="2" height="4184" fill="#0E0D0E"/>
<rect x="1394" width="2" height="4184" fill="#0E0D0E"/>
<rect x="1476" width="2" height="4184" fill="#0E0D0E"/>
<rect x="1558" width="2" height="4184" fill="#0E0D0E"/>
<rect x="1640" width="2" height="4184" fill="#0E0D0E"/>
<rect x="1722" width="2" height="4184" fill="#0E0D0E"/>
<rect x="1804" width="2" height="4184" fill="#0E0D0E"/>
<rect x="1886" width="2" height="4184" fill="#0E0D0E"/>
<rect x="1968" width="2" height="4184" fill="#0E0D0E"/>
<rect x="2050" width="2" height="4184" fill="#0E0D0E"/>
<rect x="2132" width="2" height="4184" fill="#0E0D0E"/>
<rect x="2214" width="2" height="4184" fill="#0E0D0E"/>
<rect x="2296" width="2" height="4184" fill="#0E0D0E"/>
<rect x="2378" width="2" height="4184" fill="#0E0D0E"/>
<rect x="2460" width="2" height="4184" fill="#0E0D0E"/>
<rect x="2542" width="2" height="4184" fill="#0E0D0E"/>
<rect x="2624" width="2" height="4184" fill="#0E0D0E"/>
<rect x="2706" width="2" height="4184" fill="#0E0D0E"/>
<rect x="2788" width="2" height="4184" fill="#0E0D0E"/>
<rect x="2870" width="2" height="4184" fill="#0E0D0E"/>
<rect x="2952" width="2" height="4184" fill="#0E0D0E"/>
<rect x="3034" width="2" height="4184" fill="#0E0D0E"/>
<rect x="3116" width="2" height="4184" fill="#0E0D0E"/>
<rect x="3198" width="2" height="4184" fill="#0E0D0E"/>
<rect x="3280" width="2" height="4184" fill="#0E0D0E"/>
<rect x="3362" width="2" height="4184" fill="#0E0D0E"/>
<rect x="3444" width="2" height="4184" fill="#0E0D0E"/>
<rect x="3526" width="2" height="4184" fill="#0E0D0E"/>
<rect x="3608" width="2" height="4184" fill="#0E0D0E"/>
<rect x="3690" width="2" height="4184" fill="#0E0D0E"/>
<rect x="3772" width="2" height="4184" fill="#0E0D0E"/>
<rect x="3854" width="2" height="4184" fill="#0E0D0E"/>
<rect x="3936" width="2" height="4184" fill="#0E0D0E"/>
<rect x="4018" width="2" height="4184" fill="#0E0D0E"/>
<rect x="4100" width="2" height="4184" fill="#0E0D0E"/>
<rect x="4182" width="2" height="4184" fill="#0E0D0E"/>
<rect x="4264" width="2" height="4184" fill="#0E0D0E"/>
<rect x="4346" width="2" height="4184" fill="#0E0D0E"/>
<rect x="4428" width="2" height="4184" fill="#0E0D0E"/>
<rect x="4510" width="2" height="4184" fill="#0E0D0E"/>
<rect x="4592" width="2" height="4184" fill="#0E0D0E"/>
<rect x="4674" width="2" height="4184" fill="#0E0D0E"/>
<rect x="4756" width="2" height="4184" fill="#0E0D0E"/>
<rect x="4838" width="2" height="4184" fill="#0E0D0E"/>
</g>
<defs>
<clipPath id="clip0_189_167">
<rect width="4840" height="4184" fill="white"/>
</clipPath>
</defs>
</svg>
