<?xml version="1.0" encoding="UTF-8"?><svg id="Layer_2" xmlns="http://www.w3.org/2000/svg" viewBox="0 0 1070.82 686.32"><defs><style>.cls-1{fill:#fff;}.cls-2{fill:none;}.cls-3{fill:#f2ff77;}</style></defs><g id="Layer_2-2"><rect class="cls-2" width="1070.82" height="686.32"/><g><path class="cls-1" d="m94.14,138.96V30.39h23.71v108.58h-23.71Z"/><path class="cls-1" d="m192.28,58.72h11.04c-4.08,7.46-10.69,21.43-19.84,41.91l-1.94,4.32-16.26,36.99h-.75l-36.84-83.22h23.86l23.71,53.99,3.73-8.65c8.45-18.79,12.88-33.9,13.27-45.34Z"/><path class="cls-1" d="m265.65,58.72h11.04c-3.88,7.06-10.14,20.68-18.79,40.86l-1.64,4.03-20.58,47.58c-6.66,15.11-17.9,22.67-33.71,22.67l1.19-11.04c2.88,1.19,5.91,1.79,9.1,1.79,4.37,0,8.45-1.17,12.23-3.5,3.78-2.34,6.56-5.69,8.35-10.07l4.47-10.29-35.94-82.03h23.71l23.86,54.74,4.77-10.89c7.46-17.5,11.43-32.11,11.93-43.85Z"/><path class="cls-1" d="m210.77,297.69h-23.27l-9.25-97.54-34.75,90.68h-.6l-40.12-85.61-3.88,44.89c-.5,6.17-.75,12.18-.75,18.05,0,11.24.94,21.08,2.83,29.53h-12.38c3.28-12.63,5.72-28.49,7.31-47.58l4.33-50.41-4.77-10.14v-.45h25.35l32.07,69.2,26.55-69.2h21.18l10.14,108.58Z"/><path class="cls-1" d="m220.02,258.01c0-12.53,4.1-22.72,12.3-30.57,8.2-7.85,18.57-11.78,31.1-11.78s22.45,3.8,30.35,11.41c7.9,7.61,11.86,17.62,11.86,30.05s-4.13,22.59-12.38,30.5c-8.25,7.91-18.59,11.86-31.02,11.86s-22.45-3.8-30.35-11.41c-7.9-7.61-11.86-17.62-11.86-30.05Zm62.34.15c0-12.43-1.77-22.27-5.29-29.53-3.53-7.26-8.38-10.89-14.54-10.89s-11.04,3.46-14.32,10.37c-3.28,6.91-4.92,16.63-4.92,29.16s1.74,22.1,5.22,29.31c3.48,7.21,8.3,10.81,14.47,10.81s11.06-3.45,14.39-10.37c3.33-6.91,5-16.53,5-28.86Z"/><path class="cls-1" d="m398.99,293.81l-20.88,5.52-4.03-12.53c-7.56,8.45-16.16,12.68-25.8,12.68s-17.9-3.8-24.46-11.41c-6.56-7.61-9.84-17.23-9.84-28.86,0-12.43,3.88-22.79,11.63-31.1,7.76-8.3,17.2-12.45,28.34-12.45,7.66,0,14.27,2.19,19.84,6.56v-39.08l21.33-6.26h.6v106.64l3.28,10.29Zm-25.21-10.59v-49.81c-1.39-4.77-3.6-8.52-6.64-11.26-3.03-2.73-6.49-4.1-10.37-4.1-6.26,0-11.09,3.46-14.47,10.37-3.38,6.91-5.07,16.63-5.07,29.16,0,23.56,6.26,35.35,18.79,35.35,6.26,0,12.18-3.23,17.75-9.69Z"/><path class="cls-1" d="m485.19,252.35h-54.29v.6c0,12.23,2.39,21.58,7.16,28.04,4.77,6.46,11.28,9.69,19.54,9.69,10.14,0,18.69-4.37,25.65-13.12l1.79,1.04c-9.45,13.92-21.98,20.88-37.58,20.88-11.54,0-20.98-3.68-28.34-11.04-7.36-7.36-11.04-17.1-11.04-29.23,0-13.02,4-23.54,12.01-31.54,8-8,18.32-12.01,30.95-12.01,11.63,0,20.36,3.43,26.17,10.29,5.82,6.86,8.48,15.66,7.98,26.4Zm-54.29-2.39h34.75c.2-3.78.3-5.82.3-6.12,0-7.75-1.49-14.02-4.47-18.79-2.98-4.77-6.86-7.16-11.63-7.16-5.47,0-9.9,3.03-13.27,9.1-3.28,5.77-5.17,13.42-5.67,22.97Z"/></g><g><path class="cls-1" d="m760.63,194.97h6.74v30.85h-6.74v-15.68h-12.58v15.68h-6.74v-30.85h6.74v14.41h12.58v-14.41Z"/><path class="cls-1" d="m792.88,212.94h-15.42v.17c0,3.47.68,6.13,2.03,7.97,1.36,1.84,3.21,2.75,5.55,2.75,2.88,0,5.31-1.24,7.29-3.73l.51.3c-2.68,3.96-6.24,5.93-10.68,5.93-3.28,0-5.96-1.04-8.05-3.14-2.09-2.09-3.14-4.86-3.14-8.3,0-3.7,1.14-6.69,3.41-8.96s5.2-3.41,8.79-3.41c3.3,0,5.78.97,7.44,2.92s2.41,4.45,2.27,7.5Zm-15.42-.68h9.87c.06-1.07.08-1.65.08-1.74,0-2.2-.42-3.98-1.27-5.34-.85-1.36-1.95-2.03-3.3-2.03-1.55,0-2.81.86-3.77,2.58-.93,1.64-1.47,3.81-1.61,6.52Z"/><path class="cls-1" d="m816.99,224.59v.25c-1.41.93-3,1.4-4.75,1.4-2.51,0-3.97-1.07-4.36-3.22-2.09,2.15-4.53,3.22-7.33,3.22-1.78,0-3.22-.5-4.32-1.5s-1.65-2.31-1.65-3.92c0-1.92.83-3.51,2.48-4.77s3.93-2.04,6.84-2.35c1.53-.11,2.84-.23,3.94-.34v-2.33c0-2.15-.34-3.81-1.02-5-.62-1.21-1.98-1.82-4.07-1.82s-4.27.79-6.27,2.37l-.38-.47c1.36-1.24,2.72-2.15,4.09-2.73,1.37-.58,3.01-.87,4.94-.87,5.99,0,8.98,2.7,8.98,8.09v10.85c0,1.3.11,2.16.34,2.58s.79.63,1.7.63c.11,0,.4-.03.85-.08Zm-9.15-2.37v-8.22c-4.8.57-7.2,2.57-7.2,6.02,0,1.33.3,2.36.91,3.09.61.74,1.41,1.1,2.39,1.1,1.36,0,2.65-.66,3.9-1.99Z"/><path class="cls-1" d="m842.16,224.71l-5.93,1.57-1.14-3.56c-2.15,2.4-4.59,3.6-7.33,3.6s-5.08-1.08-6.95-3.24c-1.87-2.16-2.8-4.89-2.8-8.2,0-3.53,1.1-6.48,3.3-8.83,2.2-2.36,4.89-3.54,8.05-3.54,2.17,0,4.05.62,5.64,1.86v-11.1l6.06-1.78h.17v30.3l.93,2.92Zm-7.16-3.01v-14.15c-.4-1.36-1.02-2.42-1.89-3.2-.86-.78-1.84-1.17-2.94-1.17-1.78,0-3.15.98-4.11,2.95-.96,1.96-1.44,4.72-1.44,8.28,0,6.7,1.78,10.04,5.34,10.04,1.78,0,3.46-.92,5.04-2.75Z"/><path class="cls-1" d="m849.02,199.76l-3.94-3.94,3.94-3.94,3.9,3.94-3.9,3.94Zm-3.14,26.06v-21.95l6.06-1.48h.17v23.43h-6.23Z"/><path class="cls-1" d="m878.13,210.6v15.21h-6.23v-15.8c0-1.38-.24-2.67-.72-3.86-.45-1.13-1.54-1.69-3.26-1.69s-3.3.8-4.92,2.42v18.94h-6.23v-21.95l6.06-1.48h.17v3.69c2.23-2.37,4.79-3.56,7.67-3.56,4.97,0,7.46,2.7,7.46,8.09Z"/><path class="cls-1" d="m901.27,204.59c-.82,0-1.46.14-1.91.42,1.61,1.44,2.42,3.25,2.42,5.42,0,2.32-.97,4.22-2.9,5.72-1.94,1.5-4.34,2.25-7.22,2.25-1.72,0-3.25-.25-4.58-.76l-.72.47c-.65.42-.97.96-.97,1.61,0,.4.22.74.66,1.02.44.28,1.09.44,1.97.47l7.92.47c5.31.25,7.97,2.18,7.97,5.76,0,2.54-1.29,4.6-3.88,6.19-2.58,1.58-5.71,2.37-9.38,2.37-2.88,0-5.33-.51-7.33-1.53-2.01-1.02-3.01-2.44-3.01-4.28,0-.76.18-1.51.55-2.25l3.39-.97h.17c-.37.99-.55,1.96-.55,2.92,0,1.7.6,3.02,1.8,3.98,1.2.96,2.86,1.44,4.98,1.44,2.88,0,5.22-.49,7.01-1.46s2.69-2.25,2.69-3.83c0-1.07-.46-1.89-1.38-2.44-.92-.55-2.42-.88-4.51-1l-7.29-.42c-1.64-.11-2.88-.51-3.73-1.21-.85-.69-1.27-1.6-1.27-2.73,0-.9.28-1.69.83-2.35.55-.66,1.46-1.38,2.73-2.14l.64-.38c-3.08-1.41-4.62-3.69-4.62-6.82,0-2.34.97-4.27,2.9-5.76,1.93-1.5,4.36-2.25,7.27-2.25,2.74,0,5.03.66,6.86,1.99,1.33-2.34,3.28-3.52,5.85-3.52l-.51,4.32c-1.1-.48-2.05-.72-2.84-.72Zm-5.17,5.97c0-2.29-.39-4.1-1.17-5.42-.78-1.33-1.84-1.99-3.2-1.99-2.85,0-4.28,2.43-4.28,7.29,0,2.29.37,4.08,1.12,5.38.75,1.3,1.83,1.95,3.24,1.95,2.85,0,4.28-2.4,4.28-7.2Z"/></g><g><path class="cls-1" d="m327.49,81.14l-1.92-4.78h-5.68c-.73,1.97-1.13,3.57-1.18,4.78h-1.38c.71-1.45,1.57-3.45,2.6-6l.16-.38,3.48-8.5h.08l6.06,14.88h-2.22Zm-7.46-5.14h5.4l-2.7-6.68-2.26,5.58-.44,1.1Z"/><path class="cls-1" d="m341.91,77.14c0,1.24-.53,2.22-1.59,2.93-1.06.71-2.54,1.07-4.45,1.07h-4.7v-14.56h4.82c1.63,0,2.87.3,3.74.89.87.59,1.3,1.43,1.3,2.51,0,.88-.33,1.62-.98,2.23s-1.5,1.02-2.54,1.23v.04c1.29.08,2.35.45,3.16,1.1.83.64,1.24,1.49,1.24,2.56Zm-6.42-10.24h-2.28v6.58h2.58c.93,0,1.68-.31,2.24-.92.56-.61.84-1.4.84-2.36s-.29-1.78-.88-2.39c-.59-.61-1.42-.91-2.5-.91Zm4.18,10.52c0-1.09-.32-1.97-.96-2.63-.64-.66-1.5-.99-2.58-.99h-2.92v6.88c.21.05.52.09.92.1.59.03.97.04,1.14.04,2.93,0,4.4-1.13,4.4-3.4Z"/><path class="cls-1" d="m343.27,73.98c-.03-2.25.67-4.1,2.09-5.53,1.42-1.43,3.19-2.14,5.31-2.11,1.09,0,2.12.21,3.09.64s1.76.99,2.37,1.7l-1,.9c-.55-.91-1.22-1.62-2.01-2.14-.79-.52-1.64-.78-2.55-.78-1.49,0-2.71.65-3.65,1.94-.94,1.29-1.41,2.92-1.41,4.88,0,2.15.53,3.85,1.58,5.12,1.05,1.27,2.41,1.9,4.06,1.9,2.12,0,3.77-.91,4.94-2.74l.24.14c-1.43,2.32-3.45,3.48-6.08,3.48-2.03,0-3.7-.69-5.01-2.06-1.31-1.37-1.97-3.15-1.97-5.34Z"/><path class="cls-1" d="m370.81,73.7c0,2.32-.72,4.14-2.17,5.46-1.45,1.32-3.41,1.98-5.89,1.98h-4.76v-14.56h5.1c2.36,0,4.24.63,5.63,1.88,1.39,1.25,2.09,3,2.09,5.24Zm-2.24.1c0-2.07-.52-3.73-1.55-5-1.03-1.27-2.4-1.9-4.11-1.9h-2.88v13.74c.52.12,1.54.18,3.06.18,1.75,0,3.1-.61,4.05-1.83.95-1.22,1.43-2.95,1.43-5.19Z"/><path class="cls-1" d="m381.99,79.8h.04l-.38,1.34h-8.62v-14.56h8.38l.24,1.26h-.04c-1.77-.6-3.59-.9-5.44-.9h-1.1v6.44h.92c2.15,0,3.55-.13,4.2-.4h.04v1.24h-.04c-.71-.32-2.11-.48-4.2-.48h-.92v7.04h1.16c2.04,0,3.96-.33,5.76-.98Z"/><path class="cls-1" d="m386.63,66.94h-.78v6.68h.72c2.15,0,3.55-.13,4.2-.4h.04v1.24h-.04c-.71-.32-2.11-.48-4.2-.48h-.72v7.16h-2.04v-14.56h8.04l.26,1.26h-.04c-1.77-.6-3.59-.9-5.44-.9Z"/><path class="cls-1" d="m400.71,74.54h5.44v5.02c-1.65,1.21-3.55,1.82-5.68,1.82-2.36,0-4.25-.66-5.66-1.99-1.41-1.33-2.12-3.14-2.12-5.43-.03-2.24.7-4.08,2.17-5.51,1.47-1.43,3.3-2.14,5.49-2.11,1.11,0,2.14.21,3.11.63s1.76.99,2.37,1.71l-1,.9c-.55-.92-1.22-1.64-2.02-2.15-.8-.51-1.68-.77-2.64-.77-1.59,0-2.86.65-3.81,1.95-.95,1.3-1.43,3.04-1.43,5.21-.03,2.11.49,3.84,1.55,5.2,1.06,1.36,2.42,2.03,4.09,2,1.47,0,2.7-.4,3.7-1.2v-4.92h-3.34l-.22-.36Z"/><path class="cls-1" d="m417.59,66.58h2.04v14.56h-2.04v-7.4h-7.12v7.4h-2.04v-14.56h2.04v6.8h7.12v-6.8Z"/><path class="cls-1" d="m422.51,81.14v-14.56h2.04v14.56h-2.04Z"/><path class="cls-1" d="m424.73,84.14l-.14-.24c.88-.56,1.53-1.14,1.94-1.74.41-.63.69-1.35.84-2.16.13-.79.2-1.87.2-3.26v-10.16h2.04v10c0,1.53-.19,2.78-.58,3.74-.37.92-.89,1.65-1.56,2.2-.65.53-1.57,1.07-2.74,1.62Z"/><path class="cls-1" d="m432.41,81.14v-14.56h2.04v14.56h-2.04Zm5.8-9.88l-1.44,1.38,6.62,6.36v2.58h-.12l-8.18-7.9,2.86-2.72c1.93-1.83,3.21-3.29,3.84-4.38h1.6v.04c-1.59,1.32-3.31,2.87-5.18,4.64Z"/><path class="cls-1" d="m452.45,79.64h.04l-.38,1.5h-6.96v-14.56h2.04v14.2h.38c1.53,0,3.16-.38,4.88-1.14Z"/><path class="cls-1" d="m468.95,81.14h-2.04l-1.24-13.3-4.9,12.38h-.08l-5.42-11.88-.56,6.42c-.13,1.35-.2,2.63-.2,3.86,0,.93.04,1.77.12,2.52h-1.2c.33-1.48.63-3.61.88-6.4l.64-7.16-.44-.94v-.06h2.2l4.82,10.7,4.22-10.7h1.84l1.36,14.56Z"/><path class="cls-1" d="m480.49,66.58h1.2c-.27,1.68-.4,3.8-.4,6.36v8.44h-.18l-9.26-12.82v6.22c0,2.68.13,4.8.4,6.36h-1.2c.27-1.68.4-3.8.4-6.36v-6.78l-.98-1.36v-.06h2.42l8,11.28v-4.92c0-2.68-.13-4.8-.4-6.36Z"/><path class="cls-1" d="m483.51,74c-.03-2.24.7-4.08,2.19-5.53,1.49-1.45,3.32-2.16,5.51-2.13,2.15,0,3.92.68,5.33,2.03,1.41,1.35,2.11,3.14,2.11,5.35.03,2.24-.7,4.08-2.19,5.53-1.49,1.45-3.32,2.16-5.51,2.13-2.15,0-3.92-.68-5.33-2.03-1.41-1.35-2.11-3.14-2.11-5.35Zm12.9-.06c0-2.16-.5-3.91-1.5-5.26s-2.29-2.02-3.86-2.02-2.88.65-3.85,1.96-1.45,3.03-1.45,5.16.5,3.91,1.51,5.26c1.01,1.35,2.31,2.02,3.91,2.02s2.84-.65,3.8-1.96,1.44-3.03,1.44-5.16Z"/><path class="cls-1" d="m510.25,70.58c0,1.36-.51,2.45-1.52,3.26s-2.39,1.22-4.12,1.22c-.57,0-1.15-.04-1.74-.12v6.2h-2.04v-14.56h3.78c1.84,0,3.24.34,4.2,1.03.96.69,1.44,1.68,1.44,2.97Zm-2.16.24c0-1.23-.32-2.19-.96-2.88-.64-.69-1.58-1.04-2.82-1.04h-1.44v7.7c.39.09.85.14,1.4.14,1.24,0,2.19-.34,2.84-1.02s.98-1.65.98-2.9Z"/><path class="cls-1" d="m529.27,83.42v.08c-.89.43-1.9.64-3.02.64-1.31,0-2.61-.25-3.9-.76-1.28-.51-2.25-1.18-2.92-2.02-.07.01-.22.02-.46.02-2.15,0-3.92-.68-5.33-2.03-1.41-1.35-2.11-3.14-2.11-5.35-.03-2.24.7-4.08,2.19-5.53,1.49-1.45,3.32-2.16,5.51-2.13,2.15,0,3.92.68,5.33,2.03,1.41,1.35,2.11,3.14,2.11,5.35,0,1.81-.47,3.35-1.4,4.62-.92,1.28-2.15,2.16-3.68,2.64,1.75,1.75,3.7,2.62,5.86,2.62.6,0,1.21-.06,1.82-.18Zm-10.08-2.36c1.57,0,2.84-.65,3.8-1.96s1.44-3.03,1.44-5.16-.5-3.91-1.5-5.26-2.29-2.02-3.86-2.02-2.88.65-3.85,1.96-1.45,3.03-1.45,5.16.5,3.91,1.51,5.26c1.01,1.35,2.31,2.02,3.91,2.02Z"/><path class="cls-1" d="m534.83,74.06l4.48,4.98v2.54h-.12l-5.92-6.6c-.16-.16-.31-.27-.44-.33-.13-.06-.33-.09-.6-.09h-1.34v6.58h-2.04v-14.56h3.58c3.93,0,5.9,1.23,5.9,3.68,0,1.72-1.17,2.99-3.5,3.8Zm1.44-3.66c0-1.11-.34-1.97-1.01-2.58-.67-.61-1.64-.92-2.91-.92h-1.46v7.22c.41.08,1.03.12,1.84.12,1.04,0,1.89-.37,2.55-1.11s.99-1.65.99-2.73Z"/><path class="cls-1" d="m540.35,80.32l.36-1.26c.48.59,1.14,1.07,1.98,1.44s1.67.56,2.5.56c.97,0,1.75-.27,2.34-.8.61-.53.92-1.21.92-2.04-.04-.85-.31-1.51-.81-1.98-.5-.47-1.3-.96-2.39-1.48l-1-.44c-.75-.35-1.35-.67-1.82-.96-1.24-.8-1.86-1.86-1.86-3.18,0-1.11.43-2.02,1.28-2.75.85-.73,1.96-1.09,3.32-1.09,1.51,0,2.87.35,4.08,1.06l-.32,1.12c-1.21-1.24-2.54-1.86-3.98-1.86-.88,0-1.59.24-2.12.72-.53.48-.8,1.09-.8,1.84.04.77.29,1.37.76,1.8s1.25.9,2.36,1.42l1,.46c.89.44,1.54.79,1.94,1.06,1.2.75,1.8,1.82,1.8,3.22,0,1.24-.46,2.25-1.38,3.03-.92.78-2.09,1.17-3.5,1.17-.84,0-1.69-.11-2.56-.32-.85-.21-1.55-.46-2.1-.74Z"/><path class="cls-1" d="m561.01,66.58l.26,1.42h-.04c-1.53-.71-2.84-1.06-3.92-1.06h-.46v14.2h-2.04v-14.2h-.48c-1.08,0-2.39.35-3.92,1.06h-.04l.28-1.42h10.36Z"/><path class="cls-1" d="m562.77,76.14v-9.56h2.04v9.52c0,1.55.34,2.71,1.02,3.5.68.79,1.67,1.18,2.96,1.18s2.27-.39,2.96-1.17c.69-.78,1.04-1.92,1.04-3.41v-3.26c0-2.68-.13-4.8-.4-6.36h1.2c-.27,1.68-.4,3.8-.4,6.36v3.16c0,3.52-1.71,5.28-5.14,5.28-1.73,0-3.05-.45-3.94-1.34s-1.34-2.19-1.34-3.9Z"/><path class="cls-1" d="m585.65,66.58h1.38c-.71,1.45-1.57,3.45-2.6,6l-.16.38-3.48,8.5h-.08l-6.06-14.88h2.22l4.76,11.82,2.26-5.58c.64-1.55,1.08-2.78,1.32-3.7.25-.89.4-1.74.44-2.54Z"/><path class="cls-1" d="m604.37,66.58h1.24c-.59,1.4-1.38,3.53-2.38,6.38l-2.94,8.5h-.08l-3.92-11.4-4,11.4h-.08l-5.16-14.88h2.18l3.88,11.36,4-11.36h.08l3.9,11.36,1.76-5.1c.83-2.31,1.33-4.39,1.52-6.26Z"/><path class="cls-1" d="m613.49,71.86l-.62.88,4.64,5.86v2.98h-.1l-5.88-7.36-1.32,1.84c-1.32,1.88-2.13,3.57-2.42,5.08h-2.12c1.09-1.13,2.51-2.9,4.24-5.3l1.36-1.94-5.84-7.32h2.56l4.62,5.84.56-.78c1.64-2.36,2.6-4.05,2.88-5.06h1.58c-1.29,1.44-2.67,3.2-4.14,5.28Z"/><path class="cls-1" d="m626.21,72.52l-1.22,2.14v6.48h-2.04v-6.24l-4.76-8.32h2.34l4.28,7.6,1.04-1.84c1.33-2.32,2.18-4.24,2.54-5.76h1.26c-1.23,2.04-2.37,4.02-3.44,5.94Z"/><path class="cls-1" d="m640.53,79.8h.04l-.38,1.34h-10.26v-.08l8.08-14.12h-1.24c-2.8,0-4.93.3-6.4.9h-.04l.24-1.26h9.92v.08l-8.1,14.12h1.58c2.8,0,4.99-.33,6.56-.98Z"/></g><g><path class="cls-1" d="m327.41,108.76v.12c-.53.33-1.09.5-1.66.5-.97,0-1.5-.49-1.58-1.48-1.11,1.03-2.34,1.54-3.7,1.54-.84,0-1.52-.23-2.03-.68-.51-.45-.77-1.05-.77-1.78,0-.91.4-1.65,1.2-2.23s1.91-.94,3.32-1.09l1.2-.12.76-.06v-1.14c0-1.11-.2-1.93-.6-2.48-.4-.55-1.05-.82-1.96-.82-1.04,0-2.04.4-3,1.2l-.18-.22c.61-.57,1.22-.99,1.83-1.25.61-.26,1.3-.39,2.09-.39,2.48,0,3.72,1.26,3.72,3.78v5.12c0,.61.05,1.02.16,1.22.11.2.38.3.82.3.04,0,.17-.01.38-.04Zm-3.26-1.24v-3.74c-1.56.17-2.72.48-3.47.91-.75.43-1.13,1.09-1.13,1.97,0,.65.18,1.16.54,1.52.36.36.83.54,1.42.54.93,0,1.81-.4,2.64-1.2Z"/><path class="cls-1" d="m338.73,103.76c.01,1.63-.49,2.99-1.52,4.1-1.03,1.11-2.24,1.65-3.64,1.62-1.48,0-2.69-.47-3.64-1.4l-1.12,1.24h-.08v-15.68l1.8-.6h.08v7.02c1.05-1.12,2.24-1.68,3.56-1.68s2.39.51,3.26,1.52,1.3,2.3,1.3,3.86Zm-2.04.18c0-1.55-.28-2.75-.85-3.61-.57-.86-1.32-1.29-2.27-1.29-1.11,0-2.09.51-2.96,1.54v6.56c.27.64.64,1.14,1.13,1.49.49.35,1.04.53,1.65.53.97,0,1.77-.48,2.38-1.43.61-.95.92-2.22.92-3.79Z"/><path class="cls-1" d="m339.93,104.04c-.03-1.63.48-2.98,1.51-4.07,1.03-1.09,2.28-1.62,3.73-1.59,1.75,0,3.09.61,4.02,1.82l-.82.72c-.92-1.49-1.95-2.24-3.1-2.24-.96,0-1.75.45-2.36,1.36-.61.91-.92,2.09-.92,3.56,0,1.57.34,2.8,1.01,3.69s1.55,1.33,2.63,1.33c.63,0,1.25-.17,1.87-.5.62-.33,1.14-.81,1.57-1.42l.24.14c-1.16,1.76-2.65,2.64-4.46,2.64-1.43,0-2.6-.51-3.53-1.52-.93-1.01-1.39-2.32-1.39-3.92Z"/><path class="cls-1" d="m360.49,108.86l-1.78.56-.52-1.64c-1.05,1.13-2.25,1.7-3.58,1.7s-2.38-.51-3.25-1.52c-.87-1.01-1.31-2.29-1.31-3.84-.03-1.63.47-3,1.5-4.11,1.03-1.11,2.25-1.66,3.66-1.63,1.15,0,2.13.37,2.94,1.1v-5.84l1.82-.6h.08v14.38l.44,1.44Zm-2.34-1.54v-6.58c-.25-.61-.63-1.1-1.12-1.47-.49-.37-1.04-.55-1.64-.55-1,0-1.8.47-2.4,1.41-.6.94-.9,2.2-.9,3.79s.28,2.77.84,3.62c.56.85,1.33,1.28,2.3,1.28,1.07,0,2.04-.5,2.92-1.5Z"/><path class="cls-1" d="m371.53,103.18h-7.68v.36c0,1.59.35,2.83,1.05,3.73.7.9,1.61,1.35,2.73,1.35.67,0,1.32-.17,1.95-.5.63-.33,1.16-.81,1.59-1.42l.24.14c-1.15,1.76-2.68,2.64-4.6,2.64-1.45,0-2.65-.5-3.58-1.49-.93-.99-1.4-2.29-1.4-3.89,0-1.69.51-3.07,1.52-4.13,1.01-1.06,2.3-1.59,3.86-1.59,1.39,0,2.46.43,3.22,1.3.76.87,1.13,2.03,1.1,3.5Zm-7.66-.32h5.84c.05-1.25-.16-2.26-.65-3.03-.49-.77-1.16-1.15-2.01-1.15s-1.59.38-2.16,1.15c-.57.77-.91,1.78-1.02,3.03Z"/><path class="cls-1" d="m375.65,96.64v1.98h3.36l-.28.44h-3.08v10.18h-1.9v-10.18h-1.54v-.44h1.54v-1.88c0-1.2.3-2.13.91-2.79.61-.66,1.45-.99,2.53-.99s2.13.31,3.14.92l-.14.24c-.72-.32-1.43-.48-2.14-.48-1.6,0-2.4,1-2.4,3Z"/><path class="cls-1" d="m388.43,110.22c0,1.08-.55,1.99-1.64,2.72-1.09.73-2.42,1.1-3.98,1.1-1.31,0-2.39-.27-3.25-.8-.86-.53-1.29-1.23-1.29-2.08,0-.45.11-.9.32-1.34l1.12-.32h.08c-.21.56-.32,1.06-.32,1.5,0,.84.3,1.5.89,1.99.59.49,1.41.73,2.45.73,1.32,0,2.38-.25,3.18-.75.8-.5,1.2-1.16,1.2-1.99,0-1.09-.87-1.69-2.62-1.8l-3.14-.2c-1.56-.08-2.34-.63-2.34-1.64,0-.67.47-1.28,1.42-1.84l.4-.24c-1.35-.67-2.02-1.73-2.02-3.18,0-1.07.41-1.95,1.23-2.65.82-.7,1.84-1.05,3.05-1.05,1.09,0,2.01.27,2.74.8.68-.96,1.57-1.44,2.68-1.44l-.18,1.6c-.48-.15-.87-.22-1.16-.22-.47,0-.83.09-1.08.26.81.67,1.22,1.56,1.22,2.68s-.41,1.95-1.23,2.64c-.82.69-1.84,1.04-3.05,1.04-.64,0-1.26-.11-1.86-.34l-.44.3c-.39.27-.58.57-.58.9,0,.47.47.73,1.4.78l3.3.2c2.33.15,3.5,1.03,3.5,2.64Zm-7.74-8.16c0,1,.22,1.81.67,2.43s1.04.93,1.79.93,1.36-.3,1.79-.91c.43-.61.65-1.42.65-2.43s-.22-1.83-.67-2.45-1.04-.93-1.79-.93-1.34.31-1.78.92-.66,1.43-.66,2.44Z"/><path class="cls-1" d="m399.09,102.16v7.08h-1.88v-7.12c0-.77-.14-1.47-.42-2.08-.28-.63-.92-.94-1.92-.94-1.07,0-2.09.47-3.08,1.42v8.72h-1.88v-15.6l1.8-.6h.08v7.1c1.19-1.17,2.49-1.76,3.9-1.76,2.27,0,3.4,1.26,3.4,3.78Z"/><path class="cls-1" d="m402.33,96.72l-1.36-1.36,1.36-1.36,1.36,1.36-1.36,1.36Zm-.94,12.52v-10.3l1.8-.54h.08v10.84h-1.88Z"/><path class="cls-1" d="m403.35,113.8l-.08-.24c.79-.17,1.4-.61,1.85-1.32s.67-1.59.67-2.66v-10.64l1.82-.54h.08v11.04c0,1.23-.42,2.21-1.26,2.96-.83.75-1.85,1.21-3.08,1.4Zm3.38-17.08l-1.36-1.36,1.36-1.36,1.36,1.36-1.36,1.36Z"/><path class="cls-1" d="m410.05,93.64l1.8-.6h.08v16.2h-1.88v-15.6Zm4.02,8.7l4.82,4.8v2.54h-.1l-6.34-6.44,1.76-1.52c.79-.68,1.45-1.27,1.98-1.78.47-.44.89-.88,1.26-1.32h1.38v.04c-1.52,1-2.99,2.12-4.4,3.36l-.36.32Z"/><path class="cls-1" d="m420.35,109.24v-15.6l1.82-.6h.08v16.2h-1.9Z"/><path class="cls-1" d="m440.73,102.16v7.08h-1.88v-7.12c0-.77-.14-1.47-.42-2.08-.28-.63-.92-.94-1.92-.94-1.05,0-2.07.53-3.06,1.6.11.49.16.98.16,1.46v7.08h-1.9v-7.12c0-.77-.14-1.47-.42-2.08-.27-.63-.9-.94-1.9-.94s-1.93.47-2.9,1.4v8.74h-1.9v-10.3l1.82-.54h.08v1.72c.61-.61,1.21-1.06,1.78-1.33.57-.27,1.23-.41,1.96-.41,1.6,0,2.64.65,3.12,1.96.67-.69,1.31-1.19,1.92-1.5.61-.31,1.31-.46,2.08-.46,2.25,0,3.38,1.26,3.38,3.78Z"/><path class="cls-1" d="m452.17,102.16v7.08h-1.9v-7.12c0-.77-.14-1.47-.42-2.08-.28-.63-.92-.94-1.92-.94-1.07,0-2.09.47-3.06,1.42v8.72h-1.9v-10.3l1.82-.54h.08v1.72c1.23-1.16,2.52-1.74,3.88-1.74,2.28,0,3.42,1.26,3.42,3.78Z"/><path class="cls-1" d="m453.85,104c0-1.67.52-3.02,1.55-4.06,1.03-1.04,2.34-1.56,3.91-1.56s2.81.5,3.8,1.51c.99,1.01,1.48,2.34,1.48,3.99s-.52,3-1.55,4.04-2.34,1.56-3.91,1.56-2.81-.5-3.8-1.5c-.99-1-1.48-2.33-1.48-3.98Zm8.7,0c0-1.59-.31-2.87-.94-3.86-.63-.99-1.43-1.48-2.42-1.48s-1.8.48-2.4,1.44-.9,2.22-.9,3.78.31,2.87.94,3.85c.63.98,1.43,1.47,2.42,1.47s1.8-.47,2.4-1.42c.6-.95.9-2.21.9-3.78Z"/><path class="cls-1" d="m476.33,103.76c.01,1.63-.49,2.99-1.52,4.1-1.03,1.11-2.24,1.65-3.64,1.62-1.15,0-2.13-.37-2.94-1.1v5.42h-1.9v-14.86l1.82-.54h.08v1.66c1.07-1.12,2.25-1.68,3.54-1.68s2.39.51,3.26,1.52,1.3,2.3,1.3,3.86Zm-2.04.18c0-1.56-.28-2.77-.84-3.62-.56-.85-1.31-1.28-2.26-1.28-1.08,0-2.07.51-2.96,1.52v6.56c.25.63.62,1.12,1.11,1.49.49.37,1.04.55,1.65.55,1,0,1.8-.47,2.4-1.42.6-.95.9-2.21.9-3.8Z"/><path class="cls-1" d="m487.43,98.4h.1v15.4h-1.9v-5.98c-1.07,1.11-2.25,1.66-3.54,1.66s-2.38-.51-3.25-1.52c-.87-1.01-1.31-2.29-1.31-3.84-.03-1.63.47-3,1.5-4.11,1.03-1.11,2.25-1.66,3.66-1.63,1.4,0,2.57.41,3.52,1.22l1.22-1.2Zm-1.8,8.92v-6.58c-.25-.61-.63-1.1-1.12-1.47-.49-.37-1.04-.55-1.64-.55-1,0-1.8.47-2.4,1.41-.6.94-.9,2.2-.9,3.79s.28,2.77.84,3.62c.56.85,1.33,1.28,2.3,1.28,1.07,0,2.04-.5,2.92-1.5Z"/><path class="cls-1" d="m495.89,98.54l-.56,1.48c-.36-.16-.73-.24-1.1-.24-.52,0-1,.17-1.45.5s-.8.78-1.05,1.34v7.62h-1.9v-10.3l1.78-.54h.08v2.64c.37-.84.84-1.49,1.4-1.94.56-.45,1.18-.68,1.86-.68.31,0,.62.04.94.12Z"/><path class="cls-1" d="m496.13,108.52l.3-1.02c.97,1.13,2.2,1.7,3.68,1.7.79,0,1.42-.19,1.89-.57.47-.38.71-.87.71-1.47-.04-.57-.24-1.01-.59-1.3-.35-.29-.98-.63-1.89-1.02l-.82-.34c-.49-.2-1.01-.45-1.56-.74-1.01-.61-1.52-1.43-1.52-2.46,0-.85.34-1.55,1.03-2.1.69-.55,1.58-.82,2.69-.82,1.33,0,2.49.28,3.46.84l-.28.94c-1-1-2.12-1.5-3.36-1.5-.69,0-1.24.17-1.65.51-.41.34-.61.78-.61,1.31,0,.39.12.72.36,1,.23.25.47.45.73.6.26.15.73.36,1.41.64l.8.34c.57.23,1.08.47,1.52.72,1.04.61,1.56,1.46,1.56,2.54,0,.93-.37,1.69-1.1,2.28s-1.73.88-2.98.88c-.68,0-1.37-.09-2.07-.26-.7-.17-1.27-.41-1.71-.7Z"/><path class="cls-1" d="m511.39,108.3l.16.24c-.95.63-1.88.94-2.8.94-1.73,0-2.6-.91-2.6-2.74v-7.68h-1.54v-.34l1.46-.1,1.9-3.4h.08v3.4h3.42l-.26.44h-3.16v7.64c0,.53.09,1.02.28,1.46.2.43.65.64,1.34.64.57,0,1.15-.17,1.72-.5Z"/><path class="cls-1" d="m521.59,107.42l.44,1.44-1.78.56-.56-1.74v-.04c-1.13,1.23-2.41,1.84-3.84,1.84-2.28,0-3.42-1.25-3.42-3.76v-6.78l1.82-.54h.08v7.36c0,.77.14,1.47.42,2.1.28.61.92.92,1.92.92.49,0,1.01-.14,1.55-.43.54-.29,1.03-.68,1.47-1.17v-8.24l1.82-.54h.08v9.02Z"/><path class="cls-1" d="m531.33,98.62h1.16c-.76,1.53-1.66,3.53-2.7,6l-2.12,4.92h-.14l-4.7-10.92h2.04l3.54,8.26,1.04-2.38c1.11-2.56,1.73-4.52,1.88-5.88Z"/><path class="cls-1" d="m546.27,98.62h1.18c-.64,1.4-1.47,3.43-2.5,6.1l-1.88,4.82h-.14l-2.92-7.88-3,7.88h-.14l-4.36-10.92h2.02l3.18,8.04,3.02-8.04h.12l2.98,7.98.78-2.04c.99-2.56,1.54-4.54,1.66-5.94Z"/><path class="cls-1" d="m553.37,102.24l-.42.6,3.18,4.08v2.76h-.1l-4.26-5.5-1.08,1.52c-.91,1.28-1.43,2.46-1.58,3.54h-1.68c.79-.81,1.77-2.06,2.96-3.74l1.14-1.62-4.08-5.26h2.22l3.06,3.92.34-.48c1.07-1.52,1.71-2.67,1.92-3.44h1.22c-.8.89-1.75,2.1-2.84,3.62Z"/><path class="cls-1" d="m564.97,98.62h1.16c-.48.99-1.15,2.53-2,4.62l-.56,1.32-2.64,6.36c-.83,2-2.26,3-4.3,3l.12-1.14c.28.09.61.14.98.14.59,0,1.13-.17,1.64-.51s.9-.84,1.18-1.51l.66-1.6-4.66-10.68h2.04l3.6,8.28,1.04-2.48c1.01-2.48,1.59-4.41,1.74-5.8Z"/><path class="cls-1" d="m574.63,108.38h.06l-.24.86h-8.08v-.08l5.96-10.24h-.98c-1.84,0-3.44.17-4.8.52h-.06l.18-.82h7.82v.08l-5.92,10.24h1.04c1.87,0,3.54-.19,5.02-.56Z"/></g><g><path class="cls-1" d="m321.67,124.16h.08v14.8h-1.84v-12.36c-.63.39-1.4.71-2.32.96v-.24c.69-.25,1.42-.67,2.18-1.26.77-.57,1.41-1.21,1.9-1.9Z"/><path class="cls-1" d="m333.13,137.18l-.52,1.78h-8.96v-.08l1.16-1.2c2.01-2.11,3.49-3.89,4.44-5.34.93-1.45,1.4-2.79,1.4-4,0-.99-.27-1.77-.81-2.34s-1.26-.86-2.15-.86c-1.56,0-2.81.81-3.74,2.44l-.26-.12c1.11-2.2,2.72-3.3,4.84-3.3,1.23,0,2.24.35,3.03,1.05.79.7,1.19,1.65,1.19,2.85,0,.84-.25,1.69-.74,2.56-.47.84-1.21,1.79-2.23,2.85-1.02,1.06-2.46,2.39-4.33,3.99l-.14.12h1.46c1.39,0,2.51-.03,3.38-.08.79-.05,1.78-.16,2.98-.32Z"/><path class="cls-1" d="m334.27,138.3l.3-1.12c.53.6,1.07,1.03,1.6,1.3.53.27,1.14.4,1.82.4.99,0,1.81-.33,2.48-.99.67-.66,1-1.53,1-2.61,0-.96-.33-1.77-.98-2.42-.63-.67-1.49-1.07-2.58-1.22l-.76-.08-.08-.22.7-.22c.88-.28,1.6-.74,2.17-1.37.57-.63.85-1.36.85-2.19,0-.76-.24-1.36-.72-1.81-.48-.45-1.11-.67-1.88-.67s-1.4.18-2.01.53c-.61.35-1.09.78-1.45,1.29l-.26-.12c1.19-1.75,2.71-2.62,4.56-2.62,1.05,0,1.93.27,2.64.82.71.55,1.06,1.27,1.06,2.16,0,.79-.31,1.51-.92,2.16-.6.64-1.31,1.1-2.14,1.38v.04c1.01.19,1.87.64,2.56,1.37s1.04,1.59,1.04,2.59c0,1.33-.5,2.42-1.49,3.26-.99.84-2.26,1.26-3.79,1.26-1.17,0-2.41-.3-3.72-.9Z"/><path class="cls-1" d="m354.59,133.76l-.34,1.24h-1.84v3.96h-1.84v-3.96h-6.2l-.24-.62,7.88-10.08h.4v9.46h2.18Zm-9.46,0h5.44v-7.04l-5.44,7.04Z"/><path class="cls-1" d="m363.87,134.48c0,1.37-.5,2.5-1.49,3.39-.99.89-2.22,1.33-3.69,1.33-1.27,0-2.47-.3-3.62-.9l.28-.96c.93,1.03,2.03,1.54,3.28,1.54,1.03,0,1.88-.35,2.56-1.04s1.02-1.57,1.02-2.64c0-1.23-.47-2.19-1.42-2.89-.95-.7-2.33-1.05-4.14-1.05h-.68l.6-6.86h7.04l-.48,1.42h-6.28l-.32,3.72h.8c2.12,0,3.74.45,4.86,1.36,1.12.91,1.68,2.1,1.68,3.58Z"/><path class="cls-1" d="m365.37,133.4c-.03-2.15.67-4.09,2.08-5.82,1.41-1.73,3.21-2.87,5.4-3.42l.1.3c-1.79.59-3.15,1.67-4.08,3.26-.95,1.61-1.42,3.53-1.42,5.74,0,1.72.28,3.06.83,4.02.55.96,1.32,1.44,2.29,1.44.84,0,1.5-.36,1.99-1.09s.73-1.72.73-2.97-.25-2.26-.75-2.97c-.5-.71-1.19-1.07-2.07-1.07-.73,0-1.41.25-2.04.76l-.2-.24c.85-.81,1.86-1.22,3.02-1.22s2.13.4,2.92,1.21c.79.81,1.18,1.85,1.18,3.13,0,1.4-.47,2.54-1.4,3.42s-2.1,1.32-3.5,1.32c-1.52,0-2.75-.52-3.68-1.57-.93-1.05-1.4-2.46-1.4-4.23Z"/><path class="cls-1" d="m375.37,124.4h9.1v.08l-5.34,14.48h-1.8l6.26-13.14h-2.5c-2.69,0-4.72.16-6.08.48l.36-1.9Z"/><path class="cls-1" d="m394.79,135.12c0,1.15-.48,2.11-1.44,2.9-.96.79-2.14,1.18-3.54,1.18-1.31,0-2.42-.32-3.33-.96-.91-.64-1.37-1.49-1.37-2.54,0-1.89,1.11-3.21,3.34-3.96-1.8-.92-2.7-2.17-2.7-3.74,0-1.08.41-1.99,1.22-2.73.81-.74,1.86-1.11,3.14-1.11,1.12,0,2.08.3,2.88.91.8.61,1.2,1.37,1.2,2.29,0,.81-.27,1.52-.8,2.13-.53.61-1.26,1.1-2.18,1.47,2.39,1.04,3.58,2.43,3.58,4.16Zm-1.52.72c0-.73-.25-1.36-.76-1.89-.51-.53-1.27-1-2.28-1.41l-.98-.42-.48-.22c-1.45.89-2.18,2.13-2.18,3.72,0,.97.33,1.77.99,2.38s1.46.92,2.39.92,1.7-.3,2.34-.9c.64-.6.96-1.33.96-2.18Zm-3.18-5.36l.74.32c1.27-.89,1.9-2.03,1.9-3.4,0-.85-.26-1.56-.77-2.12-.51-.56-1.17-.84-1.97-.84s-1.49.27-1.98.8c-.49.53-.74,1.22-.74,2.06,0,.72.23,1.33.69,1.83s1.17.95,2.13,1.35Z"/><path class="cls-1" d="m398.53,139.2l-.1-.3c1.79-.59,3.15-1.67,4.08-3.26.95-1.61,1.42-3.53,1.42-5.74,0-1.72-.28-3.06-.83-4.02s-1.32-1.44-2.29-1.44c-.84,0-1.5.36-1.99,1.09s-.73,1.72-.73,2.97.25,2.26.75,2.97c.5.71,1.19,1.07,2.07,1.07.73,0,1.41-.25,2.04-.76l.2.24c-.85.81-1.84,1.22-2.96,1.22s-2.14-.4-2.95-1.21-1.21-1.85-1.21-3.13c0-1.4.47-2.54,1.4-3.42.93-.88,2.1-1.32,3.5-1.32,1.52,0,2.75.52,3.68,1.57.93,1.05,1.4,2.46,1.4,4.23.03,2.15-.67,4.09-2.08,5.83s-3.21,2.88-5.4,3.41Z"/><path class="cls-1" d="m407.71,131.8c0-2.33.52-4.19,1.56-5.57,1.04-1.38,2.44-2.07,4.2-2.07s3.09.66,4.15,1.98c1.06,1.32,1.59,3.13,1.59,5.42s-.52,4.19-1.57,5.57c-1.05,1.38-2.45,2.07-4.21,2.07s-3.09-.66-4.14-1.98c-1.05-1.32-1.58-3.13-1.58-5.42Zm9.42-.04c0-2.23-.33-4-.98-5.32-.64-1.33-1.55-2-2.74-2s-2.09.65-2.7,1.94c-.61,1.28-.92,3.01-.92,5.2s.32,4.01.96,5.34c.65,1.33,1.57,2,2.76,2s2.09-.65,2.7-1.94c.61-1.28.92-3.02.92-5.22Z"/><path class="cls-1" d="m422.23,139.38l-1.42-1.4,1.42-1.42,1.42,1.42-1.42,1.4Zm-.16-4.6l-.9-10.38h2.12l-.9,10.38h-.32Z"/><path class="cls-1" d="m437.39,128.42l-1,4.8c-.11.6-.16,1.04-.16,1.32,0,.85.37,1.28,1.12,1.28.83,0,1.56-.47,2.19-1.4.63-.93.95-2.05.95-3.34.03-1.84-.64-3.41-1.99-4.7-1.35-1.29-2.99-1.93-4.91-1.9-2.15-.04-3.99.75-5.53,2.37s-2.29,3.57-2.25,5.85c-.03,2.24.69,4.12,2.16,5.63,1.47,1.51,3.28,2.25,5.44,2.21,1.88,0,3.52-.53,4.92-1.58l.2.24c-1.49,1.11-3.23,1.66-5.2,1.66-2.33.04-4.31-.72-5.94-2.28-1.63-1.56-2.42-3.49-2.38-5.78-.03-1.56.35-3.01,1.13-4.35s1.84-2.4,3.18-3.17c1.34-.77,2.79-1.15,4.35-1.12,2.11-.03,3.89.63,5.36,1.98,1.47,1.35,2.18,2.99,2.14,4.92,0,1.44-.38,2.66-1.15,3.65s-1.76,1.49-2.97,1.49-1.91-.46-2.06-1.38c-.87,1.05-1.82,1.58-2.86,1.58-.79,0-1.43-.26-1.93-.78-.5-.52-.75-1.25-.75-2.18,0-1.36.44-2.55,1.33-3.57.89-1.02,1.98-1.53,3.27-1.53.97,0,1.73.27,2.28.82l.94-.74h.12Zm-2.44,5.96c0-.4.05-.8.16-1.2l.7-3.44c-.17-.33-.42-.6-.73-.79-.31-.19-.65-.29-1.01-.29-.89,0-1.65.47-2.28,1.41-.63.94-.94,2.02-.94,3.23,0,.83.17,1.45.5,1.88.33.43.77.64,1.32.64.87,0,1.63-.48,2.28-1.44Z"/><path class="cls-1" d="m451.59,129.34h-2.14l-.64,4.68h2v.36h-2.06l-.62,4.58h-.4l.62-4.58h-3.9l-.62,4.58h-.4l.62-4.58h-2.08v-.36h2.14l.64-4.68h-2v-.36h2.06l.62-4.58h.4l-.62,4.58h3.9l.62-4.58h.4l-.62,4.58h2.08v.36Zm-3.18,4.68l.64-4.68h-3.9l-.64,4.68h3.9Z"/><path class="cls-1" d="m462.29,135.04c0,1.25-.47,2.26-1.4,3.02-.93.76-2.11,1.14-3.52,1.14h-.34l-.16,1.78h-.4l.16-1.82c-1.52-.11-2.83-.51-3.92-1.2l.34-1.2c.39.52.91.97,1.56,1.34.65.37,1.34.61,2.06.72l.58-6.44-.58-.26c-.64-.29-1.27-.62-1.88-.98-1.21-.79-1.82-1.83-1.82-3.14,0-1.11.43-2.02,1.29-2.75s1.97-1.09,3.33-1.09c.21,0,.35,0,.42.02l.16-1.8h.4l-.16,1.82c1.24.13,2.32.47,3.24,1.02l-.28,1.04c-.92-.89-1.92-1.45-3-1.68l-.54,5.84.7.32c.88.41,1.54.77,1.98,1.06,1.19.75,1.78,1.83,1.78,3.24Zm-4.84-4.8l.52-5.72c-.32-.03-.5-.04-.54-.04-.89,0-1.61.25-2.15.75s-.81,1.13-.81,1.89c.04.77.29,1.37.74,1.78.45.41,1.2.86,2.24,1.34Zm3.36,5.72c-.04-.84-.31-1.49-.8-1.95-.49-.46-1.27-.94-2.34-1.45l-.04-.02-.56,6.32c.05.01.18.02.38.02.97,0,1.78-.28,2.41-.83.63-.55.95-1.25.95-2.09Z"/><path class="cls-1" d="m463.39,127.88c0-1.09.3-1.97.91-2.62s1.41-.98,2.41-.98,1.76.32,2.37.96c.61.64.91,1.48.91,2.52,0,1.09-.3,1.97-.91,2.62s-1.4.98-2.39.98-1.78-.32-2.39-.95c-.61-.63-.91-1.48-.91-2.53Zm5.36-.02c0-1.03-.19-1.84-.56-2.44-.37-.6-.88-.9-1.52-.9s-1.14.29-1.5.87c-.36.58-.54,1.38-.54,2.39s.19,1.84.56,2.44c.37.6.89.9,1.54.9s1.14-.29,1.49-.87.53-1.38.53-2.39Zm-2.88,11.1l8.8-14.56h.46l-8.8,14.56h-.46Zm5.14-3.36c0-1.09.3-1.97.91-2.62.61-.65,1.4-.98,2.39-.98s1.76.32,2.37.95c.61.63.91,1.48.91,2.53s-.3,1.97-.91,2.62c-.61.65-1.41.98-2.41.98s-1.74-.32-2.35-.96c-.61-.64-.91-1.48-.91-2.52Zm5.34-.02c0-1.03-.18-1.84-.55-2.44-.37-.6-.88-.9-1.53-.9s-1.14.29-1.5.88c-.36.59-.54,1.38-.54,2.38s.19,1.84.56,2.44c.37.6.88.9,1.52.9s1.14-.29,1.5-.87c.36-.58.54-1.38.54-2.39Z"/><path class="cls-1" d="m487.51,131.8l-.36.2-3.94-7.08-3.94,7.08-.36-.2,4.26-7.64h.08l4.26,7.64Z"/><path class="cls-1" d="m500.11,135.68l1.68,1.42v2.3h-.08l-2.62-2.22c-1.24,1.35-2.96,2.02-5.16,2.02-1.44,0-2.63-.35-3.56-1.06-.93-.71-1.4-1.65-1.4-2.82,0-1.76,1.09-3.09,3.26-4-1.16-1.19-1.74-2.37-1.74-3.56,0-1.03.37-1.88,1.11-2.57.74-.69,1.64-1.03,2.71-1.03s1.89.3,2.62.91,1.1,1.36,1.1,2.25-.31,1.57-.92,2.1c-.6.52-1.34.91-2.22,1.18l-.22-.2c1.36-.61,2.04-1.59,2.04-2.94,0-.89-.23-1.62-.7-2.18-.47-.56-1.07-.84-1.8-.84s-1.33.26-1.76.78c-.41.51-.62,1.1-.62,1.78s.21,1.29.62,1.86c.41.57,1.03,1.21,1.86,1.9l5.58,4.72c.39-.88.58-1.86.58-2.94,0-.79-.22-1.6-.66-2.44l.98-.38h.08v2.42c0,1.32-.25,2.5-.76,3.54Zm-1.26,1.3l-5.3-4.48c-.39-.32-.76-.65-1.12-.98-1.15.71-1.72,1.79-1.72,3.24,0,1.15.37,2.08,1.1,2.81s1.67,1.09,2.8,1.09c1.72,0,3.13-.56,4.24-1.68Z"/><path class="cls-1" d="m509.75,126.58l-3.54,1.5,3.54,1.5-.54.92-3.06-2.32.48,3.82h-1.08l.48-3.82-3.06,2.32-.54-.92,3.54-1.5-3.54-1.5.54-.92,3.06,2.32-.48-3.82h1.08l-.48,3.82,3.06-2.32.54.92Z"/><path class="cls-1" d="m512.85,131.52l-1.42-1.4,1.42-1.42,1.42,1.42-1.42,1.4Zm-1.06,10.3l-.1-.14c.79-.48,1.18-1.08,1.18-1.8,0-.76-.48-1.44-1.44-2.04l1.04-1.3c.53.21.95.52,1.26.93.31.41.46.86.46,1.37,0,.59-.22,1.14-.66,1.67-.44.53-1.02.96-1.74,1.31Z"/><path class="cls-1" d="m515.95,132.88c0-3.73,1.04-6.92,3.12-9.56l.26.18c-1.67,2.2-2.5,5.29-2.5,9.26s.83,7.14,2.5,9.34l-.26.18c-2.08-2.64-3.12-5.77-3.12-9.4Z"/><path class="cls-1" d="m520.31,142.28l-.26-.18c1.67-2.2,2.5-5.29,2.5-9.26s-.83-7.14-2.5-9.34l.26-.18c2.08,2.64,3.12,5.77,3.12,9.4s-1.04,6.92-3.12,9.56Z"/><path class="cls-1" d="m529.09,123.32v.24h-3.12c.27,3.24.4,6.32.4,9.24s-.13,6-.4,9.24h3.12v.24h-3.6v-18.96h3.6Z"/><path class="cls-1" d="m528.93,123.32h3.6v18.96h-3.6v-.24h3.12c-.27-3.24-.4-6.32-.4-9.24s.13-6,.4-9.24h-3.12v-.24Z"/></g><g><path class="cls-1" d="m494.28,419.96l-1.5-3.4h-7.06l-1.5,3.4h-1.7l6-13.4h1.46l6,13.4h-1.7Zm-5.02-11.44l-2.92,6.62h5.82l-2.9-6.62Z"/><path class="cls-1" d="m505.82,413.14c1.5.18,2.7,1.34,2.7,3.18,0,2.12-1.46,3.64-4.16,3.64h-6.42v-13.4h6.16c2.52,0,3.98,1.42,3.98,3.52,0,1.7-1.1,2.84-2.26,3v.06Zm-6.3-.58h4.56c1.5,0,2.5-.96,2.5-2.4,0-1.34-1.02-2.24-2.62-2.24h-4.44v4.64Zm4.7,6.04c1.68,0,2.7-.98,2.7-2.42s-1.12-2.34-2.68-2.34h-4.72v4.76h4.7Z"/><path class="cls-1" d="m522.46,415.32l1.52.36c-.82,2.8-3.3,4.54-6.38,4.54-3.9,0-6.96-3.06-6.96-6.96s3.06-6.96,6.96-6.96c3.08,0,5.56,1.74,6.38,4.44l-1.52.44c-.68-2.16-2.54-3.4-4.86-3.4-3,0-5.36,2.38-5.36,5.48s2.36,5.48,5.36,5.48c2.32,0,4.16-1.22,4.86-3.42Z"/><path class="cls-1" d="m531.28,406.56c4.7,0,7.42,2.9,7.42,6.7s-2.72,6.7-7.42,6.7h-4.44v-13.4h4.44Zm-.02,11.96c3.76,0,5.84-2.3,5.84-5.26s-2.08-5.28-5.84-5.28h-2.84v10.54h2.84Z"/><path class="cls-1" d="m551.34,419.96h-9.78v-13.4h9.76v1.42h-8.18v4.54h7.6v1.42h-7.6v4.58h8.2v1.44Z"/><path class="cls-1" d="m555.88,412.66h7.32v1.42h-7.32v5.88h-1.58v-13.4h9.6v1.42h-8.02v4.68Z"/><path class="cls-1" d="m579.12,412.6c.02.26.02.48.02.68,0,3.88-2.74,6.94-6.72,6.94s-6.98-3.06-6.98-6.96,3.06-6.96,6.94-6.96c2.92,0,5.36,1.42,6.32,3.88l-1.42.5c-.94-1.94-2.76-2.9-4.9-2.9-3,0-5.34,2.4-5.34,5.48s2.38,5.48,5.42,5.48c2.86,0,4.84-2,5.16-4.7h-5.92v-1.44h7.42Z"/><path class="cls-1" d="m593.2,419.96h-1.58v-6.04h-8.04v6.04h-1.58v-13.4h1.58v5.94h8.04v-5.94h1.58v13.4Z"/><path class="cls-1" d="m596.71,419.96v-13.4h1.58v13.4h-1.58Z"/><path class="cls-1" d="m610.36,415.08c0,3-1.98,5.14-4.96,5.14-2.7,0-4.52-1.78-4.88-4.32l1.5-.34c.24,1.9,1.46,3.22,3.38,3.22,2.02,0,3.38-1.54,3.38-3.7v-8.52h1.58v8.52Z"/><path class="cls-1" d="m622.76,419.96l-6.74-5.94h-.74v5.94h-1.58v-13.4h1.58v6.04h.62l6.58-6.04h1.98l-7.26,6.7,7.7,6.7h-2.14Z"/><path class="cls-1" d="m636.42,419.96h-9.26v-13.4h1.58v11.96h7.68v1.44Z"/><path class="cls-1" d="m653.32,419.96h-1.52v-10.04l-5.28,10.04h-.82l-5.3-10.04v10.04h-1.52v-13.4h1.38l5.84,11.04,5.84-11.04h1.38v13.4Z"/><path class="cls-1" d="m668.54,419.96h-1.36l-8.76-10.64v10.64h-1.58v-13.4h1.36l8.76,10.76v-10.76h1.58v13.4Z"/><path class="cls-1" d="m685.24,413.26c0,3.9-3.04,6.96-6.92,6.96s-6.94-3.06-6.94-6.96,3.04-6.96,6.94-6.96,6.92,3.08,6.92,6.96Zm-1.6,0c0-3.08-2.34-5.48-5.32-5.48s-5.34,2.4-5.34,5.48,2.34,5.46,5.34,5.46,5.32-2.36,5.32-5.46Z"/><path class="cls-1" d="m693.94,406.56c2.86,0,4.66,1.7,4.66,4.16s-1.8,4.16-4.66,4.16h-4.26v5.08h-1.58v-13.4h5.84Zm0,6.9c1.92,0,3.1-1.14,3.1-2.74s-1.18-2.74-3.1-2.74h-4.26v5.48h4.26Z"/><path class="cls-1" d="m710.2,419.64c-.86.38-1.8.58-2.8.58-3.9,0-6.94-3.06-6.94-6.96s3.04-6.96,6.94-6.96,6.92,3.08,6.92,6.96c0,2.28-1.04,4.26-2.66,5.52l2.76,3.3-1.22,1.1-3-3.54Zm-2.8-.92c2.98,0,5.32-2.36,5.32-5.46s-2.34-5.48-5.32-5.48-5.34,2.4-5.34,5.48,2.34,5.46,5.34,5.46Z"/><path class="cls-1" d="m726.34,419.96l-5.12-5.74h-2.46v5.74h-1.58v-13.4h6.2c2.62,0,4.38,1.52,4.38,3.82s-1.76,3.84-4.38,3.84h-.24l5.18,5.74h-1.98Zm-2.96-7.18c1.68,0,2.8-.96,2.8-2.4s-1.12-2.4-2.8-2.4h-4.62v4.8h4.62Z"/><path class="cls-1" d="m740,409.98l-1.58.36c-.3-1.62-1.64-2.66-3.48-2.66s-3.04.98-3.04,2.42c0,1.2.76,1.74,2.02,2l2.92.66c1.86.4,3.38,1.34,3.38,3.48,0,2.44-1.98,3.98-4.98,3.98-2.84,0-5.12-1.46-5.44-4l1.66-.34c.3,1.88,1.84,2.94,3.92,2.94s3.26-1.02,3.26-2.5c0-1.26-.68-1.76-2.18-2.1l-3.02-.66c-1.72-.38-3.22-1.28-3.22-3.42,0-2.3,1.9-3.84,4.76-3.84,2.68,0,4.56,1.48,5.02,3.68Z"/><path class="cls-1" d="m747.98,407.98v11.98h-1.6v-11.98h-4.98v-1.42h11.54v1.42h-4.96Z"/><path class="cls-1" d="m766.26,414.1c0,3.66-2.22,6.12-5.58,6.12s-5.64-2.46-5.64-6.12v-7.54h1.58v7.54c0,2.78,1.62,4.6,4.06,4.6s4-1.82,4-4.6v-7.54h1.58v7.54Z"/><path class="cls-1" d="m775.58,419.96h-1.52l-5.84-13.4h1.72l4.88,11.24,4.88-11.24h1.72l-5.84,13.4Z"/><path class="cls-1" d="m796.38,419.96h-1.66l-3.4-10.88-3.42,10.88h-1.64l-4.12-13.4h1.64l3.34,10.98,3.42-10.98h1.54l3.42,10.98,3.34-10.98h1.66l-4.12,13.4Z"/><path class="cls-1" d="m807.16,414.24l-4.02,5.72h-1.94l4.78-6.74-4.68-6.66h1.92l3.94,5.64,3.94-5.64h1.94l-4.7,6.66,4.8,6.74h-1.94l-4.04-5.72Z"/><path class="cls-1" d="m820.96,419.96h-1.58v-4.68l-5.54-8.72h1.76l4.56,7.14,4.56-7.14h1.82l-5.58,8.7v4.7Z"/><path class="cls-1" d="m838,419.96h-10.32v-1l8.2-11.04h-7.96v-1.36h10v1.14l-8.02,10.9h8.1v1.36Z"/></g><g><path class="cls-1" d="m493.44,444.29h-1.52v-1.56c-.88,1.16-2.28,1.82-3.92,1.82-2.62,0-4.92-2.06-4.92-5.18s2.3-5.18,4.92-5.18c1.64,0,3.04.66,3.92,1.82v-1.58h1.52v9.86Zm-1.52-4.92c0-2.36-1.82-3.84-3.68-3.84-2.04,0-3.68,1.48-3.68,3.84s1.64,3.82,3.68,3.82c1.86,0,3.68-1.48,3.68-3.82Z"/><path class="cls-1" d="m507.32,439.37c0,3.12-2.3,5.18-4.92,5.18-1.64,0-3.04-.66-3.92-1.82v1.56h-1.52v-14.4h1.52v6.12c.88-1.16,2.28-1.82,3.92-1.82,2.62,0,4.92,2.06,4.92,5.18Zm-1.48,0c0-2.36-1.64-3.84-3.68-3.84-1.86,0-3.68,1.48-3.68,3.84s1.82,3.82,3.68,3.82c2.04,0,3.68-1.48,3.68-3.82Z"/><path class="cls-1" d="m517.44,440.91l1.4.38c-.54,2.02-2.48,3.26-4.66,3.26-2.78,0-5.14-2.04-5.14-5.18s2.36-5.18,5.14-5.18c2.16,0,4.08,1.26,4.68,3.28l-1.46.44c-.44-1.52-1.76-2.32-3.22-2.32-2.02,0-3.66,1.52-3.66,3.78s1.64,3.76,3.66,3.76c1.46,0,2.78-.74,3.26-2.22Z"/><path class="cls-1" d="m530.92,444.29h-1.52v-1.56c-.88,1.16-2.28,1.82-3.92,1.82-2.62,0-4.92-2.06-4.92-5.18s2.3-5.18,4.92-5.18c1.64,0,3.04.66,3.92,1.82v-6.12h1.52v14.4Zm-1.52-4.92c0-2.36-1.82-3.84-3.68-3.84-2.04,0-3.68,1.48-3.68,3.84s1.64,3.82,3.68,3.82c1.86,0,3.68-1.48,3.68-3.82Z"/><path class="cls-1" d="m543.48,439.67h-8.46c.14,2.22,1.82,3.54,3.52,3.54,1.4,0,2.66-.54,3.36-2.12l1.36.32c-.78,2.06-2.5,3.14-4.72,3.14-2.62,0-5-2.02-5-5.16s2.38-5.2,5.1-5.2,4.74,1.98,4.84,4.92v.56Zm-8.4-1.14h6.86c-.28-1.94-1.66-3-3.3-3s-3.26,1.06-3.56,3Z"/><path class="cls-1" d="m547.87,435.71v8.58h-1.52v-8.58h-1.72v-1.28h1.72v-1.46c0-2.08,1.32-3.42,3.38-3.42.58,0,1.12.12,1.6.36l-.38,1.24c-.36-.14-.76-.22-1.12-.22-1.2,0-1.96.78-1.96,2.04v1.46h3.58v1.28h-3.58Z"/><path class="cls-1" d="m562.18,443.49c-.02,2.88-1.98,4.6-4.96,4.6-2.44,0-4.06-.96-4.82-2.56l1.28-.88c.7,1.32,1.7,2.06,3.54,2.06,2.08,0,3.46-1.32,3.46-3.42v-1.2c-.8,1.04-2.06,1.62-3.7,1.62-2.6,0-4.86-1.98-4.86-4.78s2.26-4.74,4.86-4.74c1.64,0,2.9.58,3.7,1.6v-1.36h1.48l.02,9.06Zm-1.5-4.56c0-2.1-1.64-3.42-3.48-3.42-2,0-3.6,1.32-3.6,3.42s1.6,3.46,3.6,3.46c1.84,0,3.48-1.36,3.48-3.46Z"/><path class="cls-1" d="m574.88,438.39v5.9h-1.52v-5.62c0-1.84-1.1-3.08-2.74-3.08-2.06,0-3.42,1.4-3.42,3.96v4.74h-1.52v-14.4h1.52v6.18c.8-1.2,2.06-1.88,3.72-1.88,2.38,0,3.96,1.7,3.96,4.2Z"/><path class="cls-1" d="m580.16,431.45c0,.58-.46,1.02-1.06,1.02s-1.04-.44-1.04-1.02c0-.54.44-1.02,1.04-1.02s1.06.48,1.06,1.02Zm-1.82,12.84v-9.86h1.54v9.86h-1.54Z"/><path class="cls-1" d="m581.81,446.23c.32.14.64.22.94.22.78,0,1.3-.48,1.3-1.22v-10.8h1.54v10.98c0,1.5-1,2.48-2.48,2.48-.66,0-1.18-.14-1.64-.34l.34-1.32Zm4.04-14.78c0,.58-.44,1.02-1.04,1.02s-1.06-.44-1.06-1.02c0-.54.44-1.02,1.06-1.02s1.04.48,1.04,1.02Z"/><path class="cls-1" d="m596.76,444.29l-5.32-4.36h-.66v4.36h-1.52v-14.4h1.52v8.54h.74l4.74-4h1.98l-5.6,4.78,6.24,5.08h-2.12Z"/><path class="cls-1" d="m600.73,444.29v-14.4h1.52v14.4h-1.52Z"/><path class="cls-1" d="m621.42,437.91v6.38h-1.52v-6.12c0-1.56-1.06-2.58-2.54-2.58-1.82,0-3.02,1.34-3.02,3.66v5.04h-1.52v-6.12c0-1.56-1.06-2.58-2.52-2.58-1.82,0-3,1.34-3,3.66v5.04h-1.52v-9.86h1.52v1.5c.7-1.08,1.82-1.74,3.36-1.74s2.78.74,3.36,2c.76-1.22,2.04-2,3.72-2,2.08,0,3.68,1.48,3.68,3.72Z"/><path class="cls-1" d="m633.9,438.39v5.9h-1.52v-5.62c0-1.84-1.1-3.08-2.74-3.08-2.06,0-3.42,1.4-3.42,3.96v4.74h-1.52v-9.86h1.52v1.64c.8-1.2,2.06-1.88,3.72-1.88,2.38,0,3.96,1.7,3.96,4.2Z"/><path class="cls-1" d="m646.74,439.35c0,3.02-2.32,5.18-5.22,5.18s-5.24-2.16-5.24-5.18,2.3-5.14,5.24-5.14,5.22,2.12,5.22,5.14Zm-1.5,0c0-2.26-1.7-3.8-3.72-3.8s-3.76,1.54-3.76,3.8,1.72,3.84,3.76,3.84,3.72-1.56,3.72-3.84Z"/><path class="cls-1" d="m659.7,439.37c0,3.12-2.3,5.18-4.92,5.18-1.64,0-3.04-.66-3.92-1.82v4.96h-1.52v-13.26h1.52v1.58c.88-1.16,2.28-1.82,3.92-1.82,2.62,0,4.92,2.06,4.92,5.18Zm-1.48,0c0-2.36-1.64-3.84-3.68-3.84-1.86,0-3.68,1.48-3.68,3.84s1.82,3.82,3.68,3.82c2.04,0,3.68-1.48,3.68-3.82Z"/><path class="cls-1" d="m671.78,447.69h-1.52v-4.96c-.88,1.16-2.28,1.82-3.92,1.82-2.62,0-4.92-2.06-4.92-5.18s2.3-5.18,4.92-5.18c1.64,0,3.04.66,3.92,1.82v-1.58h1.52v13.26Zm-1.52-8.32c0-2.36-1.82-3.84-3.68-3.84-2.04,0-3.68,1.48-3.68,3.84s1.64,3.82,3.68,3.82c1.86,0,3.68-1.48,3.68-3.82Z"/><path class="cls-1" d="m681.5,434.41l-.12,1.46c-.18-.02-.4-.02-.58-.02-2.62,0-3.96,1.98-3.96,4.64v3.8h-1.54v-9.86h1.54v2.42c.8-1.46,2.14-2.52,3.96-2.52.24,0,.42,0,.7.08Z"/><path class="cls-1" d="m684.05,441.29c.14,1.3,1.34,2,2.9,2,1.42,0,2.36-.66,2.36-1.68,0-.82-.62-1.2-1.62-1.42l-2.26-.5c-1.64-.34-2.56-1.16-2.56-2.52,0-1.78,1.48-2.98,3.74-2.98s3.66,1.14,4.02,2.74l-1.46.32c-.2-1.08-1.14-1.82-2.6-1.82s-2.18.68-2.18,1.62c0,.78.54,1.14,1.5,1.36l2.38.52c1.44.32,2.54,1.08,2.54,2.58,0,1.94-1.62,3.04-3.98,3.04s-4.06-1-4.3-2.92l1.52-.34Z"/><path class="cls-1" d="m699.42,443.77c-.8.56-1.48.78-2.28.78-1.96,0-3.26-1.16-3.26-3.34v-5.5h-2.14v-1.28h2.14v-3.14h1.54v3.14h3.52v1.28h-3.52v5.4c0,1.28.72,2,1.82,2,.56,0,1.18-.24,1.68-.6l.5,1.26Z"/><path class="cls-1" d="m710.16,444.27h-1.54v-1.6c-.8,1.18-2.08,1.86-3.72,1.86-2.38,0-3.96-1.7-3.96-4.2v-5.9h1.54v5.62c0,1.84,1.08,3.06,2.72,3.06,2.06,0,3.42-1.38,3.42-3.94v-4.74h1.54v9.84Z"/><path class="cls-1" d="m718.28,444.29h-1.66l-4.36-9.86h1.66l3.54,8.06,3.52-8.06h1.66l-4.36,9.86Z"/><path class="cls-1" d="m734.7,444.33h-1.42l-2.58-7.48-2.6,7.48h-1.42l-3.32-9.9h1.54l2.54,7.64,2.64-7.64h1.22l2.64,7.64,2.54-7.64h1.54l-3.32,9.9Z"/><path class="cls-1" d="m749.04,444.29h-1.84l-3.04-3.94-3.04,3.94h-1.84l3.76-4.86-3.76-5h1.84l3.04,4.06,3.04-4.06h1.84l-3.76,5,3.76,4.86Z"/><path class="cls-1" d="m754.8,447.69h-1.7l1.62-3.54-4.42-9.72h1.72l3.52,7.88,3.6-7.88h1.7l-6.04,13.26Z"/><path class="cls-1" d="m770.52,444.29h-8.52v-1.04l6.42-7.54h-6.24v-1.28h8.14v1.06l-6.42,7.52h6.62v1.28Z"/></g><g><path class="cls-1" d="m487.68,469.16h-1.54v-11.5l-3.58,2v-1.46l4.14-2.44h.98v13.4Z"/><path class="cls-1" d="m499.06,469.16h-9.02v-1.02l4.78-4.46c1.54-1.4,2.58-2.36,2.58-4.06s-1.18-2.74-2.92-2.74-2.98,1.16-3.06,3.2l-1.46-.3c.1-2.6,1.9-4.28,4.54-4.28s4.42,1.66,4.42,4.1c0,1.98-1.08,3.18-3.14,5.12l-3.22,3h6.5v1.44Z"/><path class="cls-1" d="m510.28,465.31c0,2.46-1.84,4.1-4.56,4.1s-4.72-1.76-4.88-4.36l1.48-.3c.14,1.98,1.38,3.26,3.4,3.26,1.84,0,3.12-1.06,3.12-2.68,0-1.48-1.12-2.34-2.98-2.34h-1.86v-1.38h1.76c1.72,0,2.8-.84,2.8-2.22,0-1.5-1.16-2.5-2.92-2.5s-3.04,1.12-3.16,3.1l-1.46-.28c.18-2.5,1.94-4.22,4.64-4.22s4.36,1.58,4.36,3.9c0,1.44-.78,2.48-2.02,2.9,1.42.4,2.28,1.48,2.28,3.02Z"/><path class="cls-1" d="m521.24,465.94v3.22h-1.54v-3.22h-7.46v-1.52l7-8.66h2v8.88h2.08v1.3h-2.08Zm-1.54-8.52l-5.74,7.22h5.74v-7.22Z"/><path class="cls-1" d="m529.9,461.05c2.66,0,4.4,1.42,4.4,4.02s-1.86,4.34-4.7,4.34-4.82-1.7-4.84-4.6l1.52-.3c0,2.22,1.42,3.46,3.34,3.46s3.18-1.14,3.18-2.88-1.2-2.62-3.02-2.62h-4.22l.3-6.72h7.92v1.42h-6.46l-.2,3.88h2.78Z"/><path class="cls-1" d="m546.28,464.89c0,2.58-1.86,4.52-4.7,4.52-3.32,0-5.28-2.44-5.28-6.6,0-2.46.5-4.5,1.82-5.86.88-.9,2.1-1.46,3.54-1.46,2.08,0,3.72,1.04,4.26,2.94l-1.52.3c-.38-1.26-1.4-1.84-2.8-1.84-1.04,0-1.88.42-2.46,1.06-1.14,1.24-1.4,3.08-1.34,4.68.68-1.3,2.24-2.14,3.9-2.14,2.84,0,4.58,1.88,4.58,4.4Zm-1.56-.02c0-1.74-1.32-3.06-3.16-3.06-1.94,0-3.22,1.42-3.22,3.12,0,1.8,1.44,3.04,3.22,3.04s3.16-1.36,3.16-3.1Z"/><path class="cls-1" d="m556.62,456.83l-5.24,12.32h-1.74l5.24-11.98h-7.34v-1.42h9.08v1.08Z"/><path class="cls-1" d="m567.68,465.61c0,2.26-1.96,3.8-4.9,3.8s-4.94-1.54-4.94-3.8c0-1.42.92-2.8,2.9-3.32-1.74-.54-2.52-1.82-2.52-3.26,0-2.12,1.8-3.54,4.56-3.54s4.54,1.42,4.54,3.54c0,1.42-.78,2.72-2.54,3.26,2.02.52,2.9,1.94,2.9,3.32Zm-1.72-.08c0-1.48-1.26-2.52-3.2-2.52s-3.18,1.02-3.18,2.54,1.32,2.5,3.18,2.5,3.2-.96,3.2-2.52Zm-3.2-4.02c1.82,0,3-.98,3-2.38s-1.28-2.34-3-2.34-2.98.9-2.98,2.36c-.02,1.42,1.18,2.36,2.98,2.36Z"/><path class="cls-1" d="m579.62,462.09c0,2.46-.48,4.48-1.82,5.86-.88.9-2.1,1.46-3.54,1.46-2.08,0-3.72-1.06-4.24-2.96l1.52-.28c.36,1.26,1.4,1.84,2.78,1.84,1.04,0,1.88-.44,2.46-1.06,1.14-1.26,1.4-3.06,1.34-4.68-.7,1.3-2.24,2.14-3.9,2.14-2.82,0-4.58-1.88-4.58-4.42s1.88-4.5,4.7-4.5c3.34,0,5.28,2.44,5.28,6.6Zm-2.02-2.12c0-1.8-1.46-3.06-3.22-3.06-1.86,0-3.16,1.36-3.16,3.1s1.32,3.08,3.16,3.08,3.22-1.44,3.22-3.12Z"/><path class="cls-1" d="m592.92,462.45c0,4.16-2.22,6.96-5.54,6.96s-5.56-2.8-5.56-6.96,2.24-6.96,5.56-6.96,5.54,2.82,5.54,6.96Zm-1.6,0c0-3.28-1.56-5.5-3.94-5.5s-3.96,2.22-3.96,5.5,1.56,5.48,3.96,5.48,3.94-2.22,3.94-5.48Z"/><path class="cls-1" d="m597.76,468.22c0,.56-.44,1-1.04,1s-1.04-.44-1.04-1,.44-1.02,1.04-1.02,1.04.48,1.04,1.02Zm-.2-11.84l-.06,8.8h-1.56l-.04-8.8v-.62h1.66v.62Z"/><path class="cls-1" d="m612.66,465.6c0,.8.62,1.32,1.44,1.32,1.5,0,2.14-1.94,2.14-3.72,0-3.98-3.16-6.74-7.18-6.74s-7.3,3.02-7.3,7.12,3.16,7.12,7.06,7.12c1.56,0,3.46-.48,4.78-1.4l.54.86c-1.36.98-3.5,1.54-5.3,1.54-4.48,0-8.14-3.38-8.14-8.1s3.6-8.1,8.36-8.1,8.22,3.2,8.22,7.66c0,2.22-.88,4.68-3.32,4.68-1.26,0-2.08-.62-2.3-1.6-.66.96-1.74,1.52-3.06,1.52-2.24,0-4-1.62-4-4.1s1.8-4.12,3.98-4.12c1.28,0,2.34.56,3.02,1.5v-1.34h1.06v5.9Zm-1.06-1.96c0-1.86-1.34-3.02-2.88-3.02s-2.9,1.14-2.9,3.02,1.36,3.08,2.9,3.08,2.88-1.18,2.88-3.08Z"/><path class="cls-1" d="m628.16,464.44h2.14l-.36,1.3h-2.12l-.86,3.42h-1.38l.86-3.42h-3.76l-.86,3.42h-1.38l.86-3.42h-2.14l.34-1.3h2.14l.94-3.7h-2.16l.36-1.3h2.12l.94-3.68h1.38l-.94,3.68h3.76l.92-3.68h1.38l-.92,3.68h2.16l-.38,1.3h-2.12l-.92,3.7Zm-4.2-3.7l-.94,3.7h3.76l.92-3.7h-3.74Z"/><path class="cls-1" d="m638.78,468.88v2.28h-1.34v-2.32c-2.24-.28-4.06-1.66-4.24-3.84l1.54-.32c.16,1.64,1.32,2.56,2.76,2.8v-4.52l-.9-.2c-1.66-.34-3.04-1.22-3.04-3.14,0-2.06,1.58-3.42,3.88-3.6v-2.26h1.34v2.3c2.2.26,3.68,1.68,3.86,3.6l-1.52.3c-.12-1.46-1.14-2.32-2.4-2.56v4.36l1,.22c1.72.36,3.12,1.24,3.12,3.24,0,2.14-1.66,3.52-4.06,3.66Zm-1.28-11.54c-1.42.16-2.36.98-2.36,2.18,0,1.12.78,1.58,1.88,1.84l.48.12v-4.14Zm1.22,10.2c1.6-.12,2.62-1,2.62-2.26,0-1.12-.74-1.64-2-1.9l-.62-.14v4.3Z"/><path class="cls-1" d="m651.5,458.69c0,1.9-1.54,3.16-3.28,3.16s-3.3-1.26-3.3-3.16,1.56-3.2,3.3-3.2,3.28,1.22,3.28,3.2Zm-5.42-.02c0,1.3,1.06,2.1,2.14,2.1s2.1-.8,2.1-2.1-1.04-2.1-2.1-2.1-2.14.8-2.14,2.1Zm10.64-2.92h1.1l-10.02,13.4h-1.1l10.02-13.4Zm3.14,10.48c0,1.9-1.54,3.18-3.28,3.18s-3.3-1.28-3.3-3.18,1.56-3.2,3.3-3.2,3.28,1.22,3.28,3.2Zm-5.42-.02c0,1.3,1.06,2.1,2.14,2.1s2.1-.8,2.1-2.1-1.04-2.1-2.1-2.1-2.14.8-2.14,2.1Z"/><path class="cls-1" d="m661.35,460.03l2.9-4.28h1.08l2.9,4.28h-1.4l-2.04-2.96-2.04,2.96h-1.4Z"/><path class="cls-1" d="m679.3,467.64c-1.1,1.18-2.66,1.78-4.32,1.78-2.98,0-4.96-1.6-4.96-4,0-1.66,1.08-2.92,2.58-3.64-.8-.92-1.14-1.76-1.14-2.76,0-2.1,1.62-3.52,3.86-3.52s3.64,1.34,3.92,3.52l-1.44.28c-.16-1.78-1.16-2.5-2.48-2.5s-2.38.86-2.38,2.24.86,2.26,2.9,3.92l3.16,2.64c.3-.66.48-1.46.48-2.38v-.86h1.36v.86c0,1.3-.28,2.4-.76,3.3l2.38,1.98-.9,1.06-2.26-1.92Zm-1.08-.9l-3.54-3c-.44-.36-.84-.7-1.2-1.02-1.22.56-1.98,1.52-1.98,2.7,0,1.62,1.4,2.68,3.48,2.68,1.2,0,2.38-.46,3.24-1.36Z"/><path class="cls-1" d="m690.66,459.65l-.52.88-2.36-1.36v2.64h-1.1v-2.64l-2.36,1.36-.52-.88,2.4-1.38-2.4-1.38.52-.88,2.36,1.36v-2.62h1.1v2.62l2.36-1.36.52.88-2.4,1.38,2.4,1.38Z"/><path class="cls-1" d="m691.79,471.8l1.32-5.26h1.8v.04l-1.92,5.22h-1.2Zm3.32-10.86c0,.56-.44,1-1.04,1s-1.04-.44-1.04-1,.44-1.02,1.04-1.02,1.04.48,1.04,1.02Z"/><path class="cls-1" d="m701.87,469.86l-1.08.94c-2.72-2.5-3.78-5.3-3.78-8.34s1.06-5.84,3.78-8.34l1.08.96c-2.44,2.4-3.22,4.7-3.22,7.38s.78,4.98,3.22,7.4Z"/><path class="cls-1" d="m705.16,454.11c2.72,2.5,3.78,5.3,3.78,8.34s-1.06,5.84-3.78,8.34l-1.08-.94c2.44-2.42,3.22-4.72,3.22-7.4s-.78-4.98-3.22-7.38l1.08-.96Z"/><path class="cls-1" d="m713.27,469.48h3.48v1.32h-4.96v-16.46h4.96v1.34h-3.48v13.8Z"/><path class="cls-1" d="m723.94,470.8h-4.98v-1.32h3.48v-13.8h-3.48v-1.34h4.98v16.46Z"/></g><g><path class="cls-1" d="m152.85,420.03c.23,2.62.34,4.79.34,6.61,0,22.67-16.18,39.65-38.73,39.65s-40.56-17.43-40.56-39.87,17.66-39.87,40.1-39.87c16.06,0,31.21,7.52,36.68,23.01l-13.9,4.9c-5.58-10.71-14.47-13.33-22.78-13.33-13.67,0-24.38,10.94-24.38,25.29s11.05,25.4,25.29,25.4c11.62,0,20.28-6.83,22.9-17.66h-26.77v-14.13h41.81Z"/><path class="cls-1" d="m218.36,464.58h-15.04v-4.44c-4.78,3.87-11.05,6.15-18.8,6.15-14.47,0-27.91-12.19-27.91-30.08s13.44-30.19,27.91-30.19c7.75,0,14.01,2.28,18.8,6.27v-4.56h15.04v56.85Zm-15.04-28.37c0-10.48-8.09-17.09-16.18-17.09-9.11,0-15.95,6.61-15.95,17.09s6.84,16.97,15.95,16.97c8.09,0,16.18-6.49,16.18-16.97Z"/><path class="cls-1" d="m229.75,464.58v-82.02h15.04v82.02h-15.04Z"/><path class="cls-1" d="m313.37,464.58h-15.04v-4.44c-4.79,3.87-11.05,6.15-18.8,6.15-14.47,0-27.91-12.19-27.91-30.08s13.44-30.19,27.91-30.19c7.75,0,14.01,2.28,18.8,6.27v-4.56h15.04v56.85Zm-15.04-28.37c0-10.48-8.09-17.09-16.18-17.09-9.11,0-15.95,6.61-15.95,17.09s6.84,16.97,15.95,16.97c8.09,0,16.18-6.49,16.18-16.97Z"/><path class="cls-1" d="m380.47,429.94v34.63h-15.04v-31.44c0-7.97-4.56-13.33-11.51-13.33-8.54,0-14.13,5.7-14.13,19.59v25.18h-15.04v-56.85h15.04v5.13c4.44-4.44,10.37-6.83,17.89-6.83,13.67,0,22.78,9.8,22.78,23.92Z"/><path class="cls-1" d="m447.46,436.21c0,17.89-14.01,29.85-30.65,29.85s-30.99-11.96-30.99-29.85,14.01-29.85,30.99-29.85,30.65,11.96,30.65,29.85Zm-14.58,0c0-10.59-8.2-16.97-16.06-16.97s-16.4,6.38-16.4,16.97,8.2,16.97,16.4,16.97,16.06-6.38,16.06-16.97Z"/><path class="cls-1" d="m152.85,515.29c.23,2.62.34,4.79.34,6.61,0,22.67-16.18,39.65-38.73,39.65s-40.56-17.43-40.56-39.87,17.66-39.87,40.1-39.87c16.06,0,31.21,7.52,36.68,23.01l-13.9,4.9c-5.58-10.71-14.47-13.33-22.78-13.33-13.67,0-24.38,10.94-24.38,25.29s11.05,25.4,25.29,25.4c11.62,0,20.28-6.83,22.9-17.66h-26.77v-14.13h41.81Z"/><path class="cls-1" d="m200.59,502.65l-.8,14.47h-3.3c-13.9,0-20.28,8.54-20.28,24.38v18.34h-15.04v-56.85h15.04v10.37c4.56-6.61,11.16-11.16,20.39-11.16,1.48,0,2.62,0,3.99.46Z"/><path class="cls-1" d="m261.99,531.47c0,17.89-14.01,29.85-30.65,29.85s-30.99-11.96-30.99-29.85,14.01-29.85,30.99-29.85,30.65,11.96,30.65,29.85Zm-14.58,0c0-10.59-8.2-16.97-16.06-16.97s-16.4,6.38-16.4,16.97,8.2,16.97,16.4,16.97,16.06-6.38,16.06-16.97Z"/><path class="cls-1" d="m310.18,557.33c-5.92,3.19-10.02,4.21-14.81,4.21-13.44,0-22.33-7.06-22.33-22.67v-23.58h-12.19v-12.3h12.19v-17.2h15.04v17.2h18.57v12.3h-18.57v22.44c0,6.83,3.3,9.8,8.32,9.8,2.62,0,6.49-1.14,9.46-2.73l4.33,12.53Z"/><path class="cls-1" d="m366.23,535.46h-43.29c1.48,8.2,7.29,13.21,14.24,13.21,4.44,0,10.03-.57,14.13-7.52l13.44,2.85c-5.01,11.85-15.15,17.54-27.57,17.54-16.06,0-29.16-12.19-29.16-30.08s13.1-30.19,29.39-30.19c15.15,0,28.25,11.73,28.82,29.05v5.13Zm-42.83-10.59h27.46c-1.94-7.29-7.4-10.48-13.44-10.48-5.7,0-12.19,3.42-14.01,10.48Z"/><path class="cls-1" d="m383.44,541.73c.8,5.81,5.81,7.75,11.73,7.75,5.58,0,8.89-2.51,8.89-5.7,0-2.05-1.37-4.1-6.27-5.13l-11.62-2.39c-10.25-2.16-16.06-7.97-16.06-16.18,0-10.94,8.89-18.8,23.24-18.8,13.44,0,22.78,6.95,24.72,16.86l-14.35,2.85c-.57-4.56-4.56-7.86-10.82-7.86s-7.75,2.96-7.75,5.58c0,1.82.68,3.76,5.13,4.79l13.56,2.96c10.03,2.16,14.92,8.43,14.92,16.06,0,12.53-10.14,19.03-24.95,19.03-12.53,0-24.04-4.9-25.52-16.75l15.15-3.08Z"/><path class="cls-1" d="m483,579.21h-15.04v-23.81c-4.79,3.87-11.05,6.15-18.8,6.15-14.47,0-27.91-12.19-27.91-30.08s13.44-30.19,27.91-30.19c7.75,0,14.01,2.28,18.8,6.27v-4.56h15.04v76.21Zm-15.04-47.73c0-10.48-8.09-17.09-16.18-17.09-9.11,0-15.95,6.61-15.95,17.09s6.84,16.97,15.95,16.97c8.09,0,16.18-6.49,16.18-16.97Z"/><path class="cls-1" d="m548.05,559.84h-15.04v-5.13c-4.44,4.44-10.37,6.84-17.89,6.84-13.67,0-22.78-9.8-22.78-23.92v-34.63h15.04v31.44c0,7.97,4.56,13.33,11.51,13.33,8.54,0,14.13-5.7,14.13-19.59v-25.18h15.04v56.85Z"/><path class="cls-1" d="m613.11,535.46h-43.29c1.48,8.2,7.29,13.21,14.24,13.21,4.44,0,10.03-.57,14.13-7.52l13.44,2.85c-5.01,11.85-15.15,17.54-27.57,17.54-16.06,0-29.16-12.19-29.16-30.08s13.1-30.19,29.39-30.19c15.15,0,28.25,11.73,28.82,29.05v5.13Zm-42.83-10.59h27.46c-1.94-7.29-7.4-10.48-13.44-10.48-5.7,0-12.19,3.42-14.01,10.48Z"/></g><g><path class="cls-1" d="m753.59,254.24h-2.14v-5.77h-7.25v5.77h-2.14v-13.41h2.14v5.69h7.25v-5.69h2.14v13.41Z"/><path class="cls-1" d="m766.01,249.77h-8.05c.2,1.84,1.54,2.94,3,2.94,1.1,0,2.22-.32,2.92-1.72l1.86.4c-.82,2.08-2.58,3.12-4.78,3.12-2.7,0-5.07-2.08-5.07-5.22s2.34-5.27,5.15-5.27,4.86,2.04,4.96,5.03v.72Zm-7.99-1.48h5.85c-.32-1.62-1.46-2.42-2.82-2.42s-2.7.82-3.02,2.42Z"/><path class="cls-1" d="m768.31,254.24v-14.41h2.08v14.41h-2.08Z"/><path class="cls-1" d="m773.56,254.24v-14.41h2.08v14.41h-2.08Z"/><path class="cls-1" d="m788.6,249.27c0,3.08-2.38,5.21-5.3,5.21s-5.35-2.12-5.35-5.21,2.4-5.18,5.35-5.18,5.3,2.1,5.3,5.18Zm-2.02,0c0-2.06-1.58-3.4-3.28-3.4s-3.3,1.34-3.3,3.4,1.56,3.4,3.3,3.4,3.28-1.34,3.28-3.4Z"/><path class="cls-1" d="m789.04,256.88l1.26-5.33h2.42v.06l-2.1,5.26h-1.58Z"/><path class="cls-1" d="m799.94,254.24v-13.41h2.14v13.41h-2.14Z"/><path class="cls-1" d="m819.9,254.24h-2.08v-1.14c-.86.9-2.1,1.42-3.6,1.42-2.6,0-4.92-2.1-4.92-5.25s2.32-5.25,4.92-5.25c1.5,0,2.74.52,3.6,1.42v-1.14h2.08v9.93Zm-2.08-4.96c0-2.08-1.62-3.4-3.26-3.4-1.82,0-3.24,1.32-3.24,3.4s1.42,3.4,3.24,3.4c1.64,0,3.26-1.3,3.26-3.4Z"/><path class="cls-1" d="m839.1,247.91v6.33h-2.06v-5.91c0-1.46-.96-2.38-2.24-2.38-1.62,0-2.68,1.14-2.68,3.36v4.92h-2.08v-5.91c0-1.46-.96-2.38-2.24-2.38-1.6,0-2.64,1.14-2.64,3.36v4.92h-2.08v-9.93h2.08v1.12c.72-.88,1.76-1.4,3.18-1.4s2.66.66,3.3,1.82c.8-1.12,2.06-1.82,3.7-1.82,2.06,0,3.76,1.54,3.76,3.88Z"/><path class="cls-1" d="m849.52,246.03v8.21h-2.08v-8.21h-1.62v-1.72h1.62v-1.18c0-2.22,1.46-3.6,3.66-3.6.62,0,1.16.12,1.7.36l-.5,1.7c-.36-.14-.74-.2-1.06-.2-1.04,0-1.72.64-1.72,1.74v1.18h3.3v1.72h-3.3Z"/><path class="cls-1" d="m864,249.27c0,3.08-2.38,5.21-5.3,5.21s-5.35-2.12-5.35-5.21,2.4-5.18,5.35-5.18,5.3,2.1,5.3,5.18Zm-2.02,0c0-2.06-1.58-3.4-3.28-3.4s-3.3,1.34-3.3,3.4,1.56,3.4,3.3,3.4,3.28-1.34,3.28-3.4Z"/><path class="cls-1" d="m875.83,248.23v6.01h-2.1v-5.58c0-1.62-.94-2.7-2.36-2.7-1.78,0-2.96,1.2-2.96,3.7v4.58h-2.08v-9.93h2.08v1.22c.8-.96,1.96-1.5,3.44-1.5,2.38,0,3.98,1.72,3.98,4.2Z"/><path class="cls-1" d="m885.35,253.76c-.94.56-1.62.76-2.46.76-2.14,0-3.58-1.2-3.58-3.66v-4.82h-2.14v-1.72h2.14v-3.08h2.08v3.08h3.4v1.72h-3.4v4.68c0,1.24.66,1.84,1.64,1.84.52,0,1.16-.2,1.68-.54l.64,1.74Z"/><path class="cls-1" d="m905.13,246.63c.02.36.04.68.04.92,0,3.94-2.78,6.97-6.77,6.97s-7.05-3.06-7.05-6.99,3.06-6.99,6.99-6.99c2.86,0,5.42,1.38,6.39,3.96l-1.94.68c-.94-1.92-2.64-2.62-4.44-2.62-2.7,0-4.8,2.16-4.8,4.96s2.14,4.96,4.92,4.96c2.46,0,4.21-1.58,4.61-3.9h-5.33v-1.96h7.39Z"/><path class="cls-1" d="m917.43,254.24h-2.08v-1.14c-.86.9-2.1,1.42-3.6,1.42-2.6,0-4.92-2.1-4.92-5.25s2.32-5.25,4.92-5.25c1.5,0,2.74.52,3.6,1.42v-1.14h2.08v9.93Zm-2.08-4.96c0-2.08-1.62-3.4-3.26-3.4-1.82,0-3.24,1.32-3.24,3.4s1.42,3.4,3.24,3.4c1.64,0,3.26-1.3,3.26-3.4Z"/><path class="cls-1" d="m920.6,254.24v-14.41h2.08v14.41h-2.08Z"/><path class="cls-1" d="m935.56,254.24h-2.08v-1.14c-.86.9-2.1,1.42-3.6,1.42-2.6,0-4.92-2.1-4.92-5.25s2.32-5.25,4.92-5.25c1.5,0,2.74.52,3.6,1.42v-1.14h2.08v9.93Zm-2.08-4.96c0-2.08-1.62-3.4-3.26-3.4-1.82,0-3.24,1.32-3.24,3.4s1.42,3.4,3.24,3.4c1.64,0,3.26-1.3,3.26-3.4Z"/><path class="cls-1" d="m948.23,248.23v6.01h-2.1v-5.58c0-1.62-.94-2.7-2.36-2.7-1.78,0-2.96,1.2-2.96,3.7v4.58h-2.08v-9.93h2.08v1.22c.8-.96,1.96-1.5,3.44-1.5,2.38,0,3.98,1.72,3.98,4.2Z"/><path class="cls-1" d="m960.93,249.27c0,3.08-2.38,5.21-5.31,5.21s-5.34-2.12-5.34-5.21,2.4-5.18,5.34-5.18,5.31,2.1,5.31,5.18Zm-2.02,0c0-2.06-1.58-3.4-3.28-3.4s-3.3,1.34-3.3,3.4,1.56,3.4,3.3,3.4,3.28-1.34,3.28-3.4Z"/><path class="cls-1" d="m751.51,277.39c0,2.96-2.04,4.68-5.14,4.68-2.38,0-4.04-.9-4.84-2.38l1.7-1.26c.74,1.16,1.56,1.76,3.14,1.76,1.88,0,3.12-1.18,3.12-3.1v-.64c-.76.8-1.9,1.24-3.42,1.24-2.54,0-4.86-2.06-4.86-4.83s2.32-4.78,4.86-4.78c1.52,0,2.66.44,3.42,1.24v-.98h2.02v9.05Zm-2.02-4.52c0-1.84-1.46-3.02-3.08-3.02-1.78,0-3.18,1.18-3.18,3.02s1.4,3.02,3.18,3.02c1.62,0,3.08-1.2,3.08-3.02Z"/><path class="cls-1" d="m761.24,268.3l-.14,2c-.16-.02-.4-.02-.58-.02-2.52,0-3.76,1.76-3.76,4.48v3.5h-2.08v-9.93h2.08v2.12c.8-1.32,2.06-2.24,3.78-2.24.24,0,.44,0,.7.08Z"/><path class="cls-1" d="m772.7,273.31c0,3.08-2.38,5.21-5.31,5.21s-5.34-2.12-5.34-5.21,2.4-5.19,5.34-5.19,5.31,2.1,5.31,5.19Zm-2.02,0c0-2.06-1.58-3.4-3.28-3.4s-3.3,1.34-3.3,3.4,1.56,3.4,3.3,3.4,3.28-1.34,3.28-3.4Z"/><path class="cls-1" d="m781.63,277.79c-.94.56-1.62.76-2.46.76-2.14,0-3.58-1.2-3.58-3.66v-4.83h-2.14v-1.72h2.14v-3.08h2.08v3.08h3.4v1.72h-3.4v4.68c0,1.24.66,1.84,1.64,1.84.52,0,1.16-.2,1.68-.54l.64,1.74Z"/><path class="cls-1" d="m792.3,273.81h-8.05c.2,1.84,1.54,2.94,3,2.94,1.1,0,2.22-.32,2.92-1.72l1.86.4c-.82,2.08-2.58,3.12-4.78,3.12-2.7,0-5.07-2.08-5.07-5.23s2.34-5.26,5.15-5.26,4.86,2.04,4.96,5.02v.72Zm-7.99-1.48h5.85c-.32-1.62-1.46-2.42-2.82-2.42s-2.7.82-3.02,2.42Z"/><path class="cls-1" d="m795.85,275.17c.14,1.18,1.18,1.68,2.48,1.68,1.2,0,1.96-.54,1.96-1.32,0-.6-.42-.98-1.34-1.18l-2.16-.44c-1.72-.38-2.7-1.3-2.7-2.7,0-1.84,1.54-3.14,3.92-3.14s3.82,1.2,4.18,2.86l-1.98.42c-.16-.96-.98-1.62-2.26-1.62s-1.76.6-1.76,1.3c0,.56.32.92,1.2,1.12l2.36.52c1.6.34,2.58,1.28,2.58,2.68,0,2.08-1.7,3.2-4.18,3.2-2.22,0-4.12-.94-4.38-2.94l2.08-.44Z"/><path class="cls-1" d="m814.47,281.67h-2.1v-4.52c-.88.88-2.1,1.4-3.6,1.4-2.58,0-4.92-2.1-4.92-5.25s2.34-5.25,4.92-5.25c1.5,0,2.72.52,3.6,1.42v-1.14h2.1v13.33Zm-2.1-8.37c0-2.08-1.6-3.4-3.26-3.4-1.8,0-3.22,1.32-3.22,3.4s1.42,3.4,3.22,3.4c1.66,0,3.26-1.3,3.26-3.4Z"/><path class="cls-1" d="m826.73,278.27h-2.08v-1.22c-.8.96-1.96,1.5-3.42,1.5-2.4,0-3.98-1.72-3.98-4.22v-5.99h2.08v5.57c0,1.62.94,2.72,2.38,2.72,1.78,0,2.94-1.2,2.94-3.7v-4.58h2.08v9.93Z"/><path class="cls-1" d="m839.15,273.81h-8.05c.2,1.84,1.54,2.94,3,2.94,1.1,0,2.22-.32,2.92-1.72l1.86.4c-.82,2.08-2.58,3.12-4.78,3.12-2.7,0-5.07-2.08-5.07-5.23s2.34-5.26,5.15-5.26,4.86,2.04,4.96,5.02v.72Zm-7.99-1.48h5.85c-.32-1.62-1.46-2.42-2.82-2.42s-2.7.82-3.02,2.42Z"/><path class="cls-1" d="m856.11,278.27h-2.08v-1.14c-.86.9-2.1,1.42-3.6,1.42-2.6,0-4.92-2.1-4.92-5.25s2.32-5.25,4.92-5.25c1.5,0,2.74.52,3.6,1.42v-1.14h2.08v9.93Zm-2.08-4.96c0-2.08-1.62-3.4-3.26-3.4-1.82,0-3.24,1.32-3.24,3.4s1.42,3.4,3.24,3.4c1.64,0,3.26-1.3,3.26-3.4Z"/><path class="cls-1" d="m868.78,272.27v6.01h-2.1v-5.59c0-1.62-.94-2.7-2.36-2.7-1.78,0-2.96,1.2-2.96,3.7v4.58h-2.08v-9.93h2.08v1.22c.8-.96,1.96-1.5,3.44-1.5,2.38,0,3.98,1.72,3.98,4.2Z"/><path class="cls-1" d="m881.46,278.27h-2.1v-1.12c-.88.88-2.1,1.4-3.6,1.4-2.58,0-4.92-2.1-4.92-5.25s2.34-5.25,4.92-5.25c1.5,0,2.72.52,3.6,1.42v-5.62h2.1v14.41Zm-2.1-4.96c0-2.08-1.6-3.4-3.26-3.4-1.8,0-3.22,1.32-3.22,3.4s1.42,3.4,3.22,3.4c1.66,0,3.26-1.3,3.26-3.4Z"/><path class="cls-1" d="m889.56,278.27v-13.41h2.14v13.41h-2.14Z"/><path class="cls-1" d="m909.52,278.27h-2.08v-1.14c-.86.9-2.1,1.42-3.6,1.42-2.6,0-4.92-2.1-4.92-5.25s2.32-5.25,4.92-5.25c1.5,0,2.74.52,3.6,1.42v-1.14h2.08v9.93Zm-2.08-4.96c0-2.08-1.62-3.4-3.26-3.4-1.82,0-3.24,1.32-3.24,3.4s1.42,3.4,3.24,3.4c1.64,0,3.26-1.3,3.26-3.4Z"/><path class="cls-1" d="m928.72,271.94v6.33h-2.06v-5.91c0-1.46-.96-2.38-2.24-2.38-1.62,0-2.68,1.14-2.68,3.36v4.92h-2.08v-5.91c0-1.46-.96-2.38-2.24-2.38-1.6,0-2.64,1.14-2.64,3.36v4.92h-2.08v-9.93h2.08v1.12c.72-.88,1.76-1.4,3.18-1.4s2.66.66,3.3,1.82c.8-1.12,2.06-1.82,3.7-1.82,2.06,0,3.76,1.54,3.76,3.88Z"/><path class="cls-1" d="m947.23,273.31c0,3.14-2.32,5.25-4.93,5.25-1.5,0-2.74-.52-3.6-1.42v1.14h-2.08v-14.41h2.08v5.62c.86-.9,2.1-1.42,3.6-1.42,2.6,0,4.93,2.12,4.93,5.25Zm-2.02,0c0-2.08-1.42-3.4-3.24-3.4-1.64,0-3.26,1.32-3.26,3.4s1.62,3.4,3.26,3.4c1.82,0,3.24-1.3,3.24-3.4Z"/><path class="cls-1" d="m959.33,273.31c0,3.08-2.38,5.21-5.31,5.21s-5.34-2.12-5.34-5.21,2.4-5.19,5.34-5.19,5.31,2.1,5.31,5.19Zm-2.02,0c0-2.06-1.58-3.4-3.28-3.4s-3.3,1.34-3.3,3.4,1.56,3.4,3.3,3.4,3.28-1.34,3.28-3.4Z"/><path class="cls-1" d="m971.42,278.27h-2.1v-1.12c-.88.88-2.1,1.4-3.6,1.4-2.58,0-4.92-2.1-4.92-5.25s2.34-5.25,4.92-5.25c1.5,0,2.72.52,3.6,1.42v-5.62h2.1v14.41Zm-2.1-4.96c0-2.08-1.6-3.4-3.26-3.4-1.8,0-3.22,1.32-3.22,3.4s1.42,3.4,3.22,3.4c1.66,0,3.26-1.3,3.26-3.4Z"/><path class="cls-1" d="m978.26,281.67h-2.32l1.62-3.64-4.28-9.71h2.32l3.1,7.17,3.18-7.17h2.32l-5.95,13.35Z"/><path class="cls-1" d="m744.58,294.1v8.21h-2.08v-8.21h-1.62v-1.72h1.62v-1.18c0-2.22,1.46-3.6,3.66-3.6.62,0,1.16.12,1.7.36l-.5,1.7c-.36-.14-.74-.2-1.06-.2-1.04,0-1.72.64-1.72,1.74v1.18h3.3v1.72h-3.3Z"/><path class="cls-1" d="m759.06,297.34c0,3.08-2.38,5.21-5.31,5.21s-5.34-2.12-5.34-5.21,2.4-5.19,5.34-5.19,5.31,2.1,5.31,5.19Zm-2.02,0c0-2.06-1.58-3.4-3.28-3.4s-3.3,1.34-3.3,3.4,1.56,3.4,3.3,3.4,3.28-1.34,3.28-3.4Z"/><path class="cls-1" d="m770.89,296.3v6.01h-2.1v-5.59c0-1.62-.94-2.7-2.36-2.7-1.78,0-2.96,1.2-2.96,3.7v4.58h-2.08v-9.93h2.08v1.22c.8-.96,1.96-1.5,3.44-1.5,2.38,0,3.98,1.72,3.98,4.2Z"/><path class="cls-1" d="m780.41,301.82c-.94.56-1.62.76-2.46.76-2.14,0-3.58-1.2-3.58-3.66v-4.83h-2.14v-1.72h2.14v-3.08h2.08v3.08h3.4v1.72h-3.4v4.68c0,1.24.66,1.84,1.64,1.84.52,0,1.16-.2,1.68-.54l.64,1.74Z"/><path class="cls-1" d="m784.03,301.1c0,.72-.54,1.28-1.3,1.28s-1.32-.56-1.32-1.28c0-.68.56-1.26,1.32-1.26s1.3.58,1.3,1.26Z"/><path class="cls-1" d="m803.54,302.3h-1.82l-8.11-9.63v9.63h-2.14v-13.41h1.82l8.09,9.79v-9.79h2.16v13.41Z"/><path class="cls-1" d="m809.23,289.39c0,.74-.56,1.28-1.32,1.28s-1.34-.54-1.34-1.28c0-.7.56-1.3,1.34-1.3s1.32.6,1.32,1.3Zm-2.36,12.91v-9.93h2.08v9.93h-2.08Z"/><path class="cls-1" d="m819.56,298.58l1.92.5c-.54,2.14-2.54,3.5-4.84,3.5-2.84,0-5.25-2.1-5.25-5.25s2.4-5.25,5.25-5.25c2.24,0,4.22,1.36,4.84,3.48l-2,.58c-.38-1.46-1.52-2.14-2.84-2.14-1.84,0-3.2,1.36-3.2,3.32s1.36,3.32,3.2,3.32c1.32,0,2.44-.64,2.92-2.08Z"/><path class="cls-1" d="m833.06,297.84h-8.05c.2,1.84,1.54,2.94,3,2.94,1.1,0,2.22-.32,2.92-1.72l1.86.4c-.82,2.08-2.58,3.12-4.78,3.12-2.7,0-5.07-2.08-5.07-5.23s2.34-5.26,5.15-5.26,4.86,2.04,4.96,5.02v.72Zm-7.99-1.48h5.85c-.32-1.62-1.46-2.42-2.82-2.42s-2.7.82-3.02,2.42Z"/><path class="cls-1" d="m846.92,301.82c-.94.56-1.62.76-2.46.76-2.14,0-3.58-1.2-3.58-3.66v-4.83h-2.14v-1.72h2.14v-3.08h2.08v3.08h3.4v1.72h-3.4v4.68c0,1.24.66,1.84,1.64,1.84.52,0,1.16-.2,1.68-.54l.64,1.74Z"/><path class="cls-1" d="m858.13,297.34c0,3.08-2.38,5.21-5.31,5.21s-5.34-2.12-5.34-5.21,2.4-5.19,5.34-5.19,5.31,2.1,5.31,5.19Zm-2.02,0c0-2.06-1.58-3.4-3.28-3.4s-3.3,1.34-3.3,3.4,1.56,3.4,3.3,3.4,3.28-1.34,3.28-3.4Z"/><path class="cls-1" d="m881.44,295.98v6.33h-2.06v-5.91c0-1.46-.96-2.38-2.24-2.38-1.62,0-2.68,1.14-2.68,3.36v4.92h-2.08v-5.91c0-1.46-.96-2.38-2.24-2.38-1.6,0-2.64,1.14-2.64,3.36v4.92h-2.08v-9.93h2.08v1.12c.72-.88,1.76-1.4,3.18-1.4s2.66.66,3.3,1.82c.8-1.12,2.06-1.82,3.7-1.82,2.06,0,3.76,1.54,3.76,3.88Z"/><path class="cls-1" d="m893.64,297.84h-8.05c.2,1.84,1.54,2.94,3,2.94,1.1,0,2.22-.32,2.92-1.72l1.86.4c-.82,2.08-2.58,3.12-4.78,3.12-2.7,0-5.07-2.08-5.07-5.23s2.34-5.26,5.15-5.26,4.86,2.04,4.96,5.02v.72Zm-7.99-1.48h5.85c-.32-1.62-1.46-2.42-2.82-2.42s-2.7.82-3.02,2.42Z"/><path class="cls-1" d="m905.19,297.84h-8.05c.2,1.84,1.54,2.94,3,2.94,1.1,0,2.22-.32,2.92-1.72l1.86.4c-.82,2.08-2.58,3.12-4.79,3.12-2.7,0-5.06-2.08-5.06-5.23s2.34-5.26,5.14-5.26,4.87,2.04,4.96,5.02v.72Zm-7.99-1.48h5.85c-.32-1.62-1.46-2.42-2.82-2.42s-2.7.82-3.02,2.42Z"/><path class="cls-1" d="m914.11,301.82c-.94.56-1.62.76-2.46.76-2.14,0-3.58-1.2-3.58-3.66v-4.83h-2.14v-1.72h2.14v-3.08h2.08v3.08h3.4v1.72h-3.4v4.68c0,1.24.66,1.84,1.64,1.84.52,0,1.16-.2,1.68-.54l.64,1.74Z"/><path class="cls-1" d="m924.42,305.71h-2.32l1.62-3.64-4.28-9.71h2.32l3.1,7.17,3.18-7.17h2.32l-5.95,13.35Z"/><path class="cls-1" d="m941.7,297.34c0,3.08-2.38,5.21-5.3,5.21s-5.35-2.12-5.35-5.21,2.4-5.19,5.35-5.19,5.3,2.1,5.3,5.19Zm-2.02,0c0-2.06-1.58-3.4-3.28-3.4s-3.3,1.34-3.3,3.4,1.56,3.4,3.3,3.4,3.28-1.34,3.28-3.4Z"/><path class="cls-1" d="m953.28,302.3h-2.08v-1.22c-.8.96-1.96,1.5-3.42,1.5-2.4,0-3.98-1.72-3.98-4.22v-5.99h2.08v5.57c0,1.62.94,2.72,2.38,2.72,1.78,0,2.94-1.2,2.94-3.7v-4.58h2.08v9.93Z"/><path class="cls-1" d="m958.97,301.1c0,.72-.56,1.28-1.32,1.28s-1.3-.56-1.3-1.28c0-.68.54-1.26,1.3-1.26s1.32.58,1.32,1.26Zm-.16-11.59l-.08,8.61h-2.12l-.08-8.61v-.62h2.28v.62Z"/></g><polygon class="cls-3" points="781.55 150.28 796.05 151.52 796.05 147.11 781.55 148.36 769.57 148.36 778.04 139.89 789.18 130.52 786.06 127.4 776.69 138.54 768.22 147.01 768.22 135.03 769.46 120.53 765.06 120.53 766.3 135.03 766.3 147.01 757.84 138.54 748.46 127.4 745.35 130.52 756.48 139.89 764.95 148.36 752.97 148.36 738.47 147.11 738.47 151.52 752.97 150.28 764.95 150.28 756.48 158.74 745.35 168.12 748.46 171.23 757.84 160.1 766.3 151.63 766.3 163.61 765.06 178.11 769.46 178.11 768.22 163.61 768.22 151.63 776.69 160.1 786.06 171.23 789.18 168.12 778.04 158.74 769.57 150.28 781.55 150.28"/></g></svg>